<svg width="412" height="352" xmlns="http://www.w3.org/2000/svg" xmlns:xlink="http://www.w3.org/1999/xlink"><defs><path id="a" d="M.507.785H152.43v151.923H.507z"/><path d="M.392 75.079c0 31.05 9.953 57.096 51.426 73.907 6.101 2.474 12.427 2.474 18.528 0 37.887-15.357 51.426-42.857 51.426-73.907 0-33.993-23.894-55.81-60.69-74.475C24.285 19.269.392 41.086.392 75.079" id="c"/><path d="M.143 7.52c2.795 4.278 6.939 6.992 11.567 6.992s8.771-2.714 11.567-6.992C20.481 3.243 16.338.528 11.71.528S2.938 3.243.143 7.52" id="e"/><path d="M.452 7.45c2.797 4.279 6.94 6.991 11.568 6.991 4.628 0 8.772-2.712 11.567-6.991C20.792 3.173 16.648.459 12.02.459S3.249 3.173.452 7.45" id="g"/><path id="i" d="M.785.51h224.602V100H.785z"/><path id="k" d="M0 351h411.79V.785H0z"/></defs><g fill="none" fill-rule="evenodd"><g transform="translate(128 .215)"><mask id="b" fill="#fff"><use xlink:href="#a"/></mask><path d="M152.43 76.746c0 41.952-34.009 75.962-75.96 75.962-41.954 0-75.963-34.01-75.963-75.962C.507 34.794 34.517.784 76.47.784c41.952 0 75.961 34.01 75.961 75.962" fill="#002E84" mask="url(#b)"/></g><path d="M156.794 124.768c0 6.157-4.992 11.148-11.149 11.148-6.157 0-11.148-4.99-11.148-11.148 0-6.157 4.991-11.148 11.148-11.148s11.15 4.991 11.15 11.148" fill="#00AADC"/><path d="M281.13 124.768c0 6.157-4.992 11.148-11.149 11.148-6.158 0-11.149-4.99-11.149-11.148 0-6.157 4.991-11.148 11.15-11.148 6.156 0 11.147 4.991 11.147 11.148" fill="#FFB0A6"/><path d="M305.628 209.113c-10.508-23.777-35.963-38.56-62.892-34.44-15.157 2.318-28.078 10.229-37.002 21.306-8.923-11.077-21.844-18.988-37.002-21.306-26.928-4.12-73.54 1.11-88.514 38.546-2.705 6.765 8.314 5.224 8.267 5.217-41.313-6.318-51.149 61.498-57.467 102.812l270.654-5.35" fill="#FF9E32"/><path d="M170.486 148.593s26.033 19.97 67.041-1.573c0 0 7.092 38.701 7.15 45.241.11 12.327-16.912 28.31-40.688 28.31-18.808 0-38.783-11.432-37.098-29.13.62-6.512 3.595-42.848 3.595-42.848" fill="#FF39B0"/><path d="M267.772 106.294c0-33.994-23.893-55.81-60.69-74.476-36.796 18.665-60.69 40.482-60.69 74.476 0 31.05 9.953 57.096 51.425 73.907 6.101 2.473 12.428 2.473 18.53 0 37.885-15.357 51.424-42.858 51.424-73.907" fill="#00AADC"/><g transform="translate(146 31.215)"><mask id="d" fill="#fff"><use xlink:href="#c"/></mask><path d="M197.284 215.657c2.65-2.325 2.674-6.131.642-8.78-10.744-13.826-15.665-41.238-13.498-59.667.625-6.144 4.173-11.684 7.425-16.64 4.139-6.413 8.277-12.535 13-18.652 6.789-8.74 13.287-17.773 17.16-28.287 4.17-11.391 4.545-23.976 2.57-35.7-2.252-14.065-10.075-26.704-19.377-37.01-7.268-7.95-15.713-15.03-25.637-19.485-13.718-6.528-31.562-8.691-47.082-7.912-12.592.505-24.91 3.94-36.074 10.309-7.347 4.344-13.53 9.866-19.716 15.974-9.434 10.187-19.05 26.337-18.392 37.648.529 9.078 3.023 21.21.532 32.85-3.295 15.398-16.855 10.366-16.828 17.933.01 3.047 10.622 8.533 10.622 8.533s1.696 12.839 1.84 16.913c1.044 29.29 11.824 48.49 36.054 33.828 2.932-1.774 8.777-1.75 12.006 5.22 19.886 42.91-1.332 78.776 1.3 79.085 41.864 15.35 87.859-21.22 93.453-26.16" fill="#FFB0A6" mask="url(#d)"/></g><g><path d="M223.379 99.381s9.569-6.65 21.738-4.754c2.435.38 9.623 2.132 9.623 2.132.837.167 1.242-.982.486-1.377 0 0-10.38-8.136-20.011-5.834-2.12.507-5.99 1.598-9.766 3.604-3.115 1.656-2.07 6.23-2.07 6.23" fill="#FF39B0"/><path d="M239.71 114.726c4.628 0 8.77-2.713 11.567-6.99-2.796-4.279-6.94-6.992-11.567-6.992-4.628 0-8.771 2.713-11.567 6.991 2.796 4.278 6.939 6.991 11.567 6.991" fill="#FFF"/></g><g transform="translate(228 100.215)"><mask id="f" fill="#fff"><use xlink:href="#e"/></mask><path d="M16.346 11.703c0 5.531-4.484 10.016-10.015 10.016-5.53 0-10.015-4.485-10.015-10.016C-3.684 6.173.8 1.688 6.331 1.688c5.531 0 10.015 4.485 10.015 10.015" fill="#002E84" mask="url(#f)"/></g><g><path d="M192.351 98.311s-9.569-6.649-21.738-4.753c-2.435.38-9.623 2.132-9.623 2.132-.837.167-1.242-.983-.486-1.377 0 0 10.379-8.136 20.011-5.834 2.12.507 5.989 1.598 9.766 3.604 3.115 1.655 2.07 6.228 2.07 6.228" fill="#FF39B0"/><path d="M176.02 113.657c-4.628 0-8.771-2.713-11.567-6.991 2.796-4.28 6.939-6.991 11.567-6.991s8.771 2.712 11.567 6.99c-2.796 4.279-6.939 6.992-11.567 6.992" fill="#FFF"/></g><g transform="translate(164 99.215)"><mask id="h" fill="#fff"><use xlink:href="#g"/></mask><path d="M-3.312 11.634c0 5.531 4.484 10.015 10.015 10.015 5.531 0 10.015-4.484 10.015-10.015 0-5.53-4.484-10.015-10.015-10.015-5.531 0-10.015 4.484-10.015 10.015" fill="#002E84" mask="url(#h)"/></g><g transform="translate(0 .215)"><path d="M137.053 84.92s59.134 12.99 75.384-26.69c0 0 22.91 31.406 61.98 29.13 0 0-7.937-60.954-66.743-59.783-20.935.417-65.104 3.277-70.62 57.343" fill="#002E84"/><g transform="translate(165 251)"><mask id="j" fill="#fff"><use xlink:href="#i"/></mask><path d="M119.51.51l18.182 52.41L.785 68.961.963 100h193.92c22.76 0 37.482-24.052 27.13-44.32L194.38 1.578 119.51.51z" fill="#FFB0A6" mask="url(#j)"/></g><path d="M268.465 283.837l143.324.83c-6.319-41.313-47.493-72.765-88.806-66.446l-.139.021c-7.199 1.115-14.27-2.68-17.216-9.344l-37.163 74.94z" fill="#FF9E32"/><path d="M273.813 350.98H116.584v-23.53h133.698c12.996 0 23.531 10.535 23.531 23.53" fill="#00AADC"/><mask id="l" fill="#fff"><use xlink:href="#k"/></mask><path fill="#002E84" mask="url(#l)" d="M0 350.981h216.056V208.726H0zM210.902 146.793c0 5.994-4.86 10.854-10.854 10.854-5.995 0-10.855-4.86-10.855-10.854h21.71z"/><path d="M91.678 300.49c-.023 1.675-.064 3.347-.564 4.968-.01.03-.015.06-.024.093-.694 2.165-2.091 2.75-4.145 1.743a4.937 4.937 0 01-1.985-1.755c-1.385-2.124-1.782-4.473-1.523-6.955.382-3.67 2.062-6.827 3.952-9.898.426-.692.876-1.373 1.368-2.02.159-.207.502-.411.735-.386.195.02.457.356.51.593.365 1.612.787 3.222.99 4.857.314 2.495.47 5.01.68 7.517.035.41.006.828.006 1.243m50.799-21.252c-.085-.066-.338.014-.472.099-.123.076-.22.235-.271.378-.25.687-.54 1.368-.71 2.077-.85 3.51-1.707 7.02-2.484 10.549-1.187 5.395-2.376 10.787-4.123 16.039-.485 1.455-.961 2.906-1.875 4.165-1.125 1.549-3.088 1.53-4.087-.093a7.064 7.064 0 01-.884-2.152c-.394-1.801-.68-3.625-1-5.442-.598-3.384-.805-6.807-.912-10.23-.083-2.647.025-5.3.088-7.95.03-1.258.126-2.516.239-3.771.14-1.57.319-3.137.502-4.702.23-1.977.478-3.951.725-5.926.2-1.596.423-3.188.61-4.785.219-1.883.41-3.77.612-5.652.183-1.71.364-3.421.545-5.131.17-1.616.3-3.237.52-4.845.23-1.684.368-3.357.057-5.043-.395-2.136-1.228-4.054-2.812-5.588-.727-.704-1.592-1.22-2.601-1.323-1.89-.197-3.58.384-5.11 1.492-2.576 1.867-4.83 4.08-6.904 6.477a1995.665 1995.665 0 00-10.633 12.403c-2.568 3.015-5.104 6.056-7.654 9.086-.35.415-.673.853-1.048 1.243-.135.14-.421.27-.574.217-.151-.052-.274-.327-.318-.526-.695-3.072-1.338-6.157-2.071-9.22-.48-2.002-1.152-3.948-2.182-5.748-.887-1.548-2.162-2.592-3.956-2.89-1.495-.247-2.993-.16-4.47.152-2.503.529-4.718 1.7-6.683 3.288-2.707 2.187-5.332 4.475-7.99 6.722-.293.247-.578.504-.865.758-.335.296-.373.658-.196 1.042.17.374.525.242.806.22.232-.017.476-.1.679-.213 1.04-.584 2.112-1.13 3.095-1.8 1.662-1.133 3.282-2.327 4.89-3.536 2.385-1.794 5.32-.868 6.787 1.173.912 1.268 1.59 2.66 2.114 4.116.84 2.335 1.124 4.799 1.536 7.228.463 2.73.87 5.469 1.337 8.198.205 1.194.172 2.282-.616 3.307-.64.832-1.12 1.785-1.713 2.654-2.305 3.38-4.155 6.983-5.47 10.862-.572 1.689-.992 3.414-.96 5.19.026 1.41.21 2.829.452 4.222.457 2.645 1.304 5.159 2.854 7.389.84 1.21 1.908 2.168 3.347 2.586 2.438.709 4.675.208 6.686-1.3 1.714-1.283 2.745-3.088 3.607-4.991 1.56-3.452 2.006-7.142 2.095-10.864.095-3.971.052-7.95-.352-11.91-.247-2.422-.558-4.84-.84-7.258-.095-.816-.291-1.613.326-2.368 4.238-5.177 8.407-10.411 12.696-15.546 2.209-2.644 4.602-5.138 6.954-7.66.477-.512 1.119-.893 1.738-1.24.636-.355 1.162-.124 1.506.519.286.537.264 1.1.184 1.677-.473 3.39-.972 6.776-1.4 10.17a176.048 176.048 0 00-.791 7.604 177.215 177.215 0 00-.454 7.639c-.07 1.818-.014 3.64-.014 5.46l-.152.008c.18 3.487.315 6.978.555 10.46.17 2.478.515 4.943.725 7.42.246 2.894.683 5.753 1.379 8.57.435 1.762.829 3.545 1.775 5.129 1.56 2.613 3.832 4.16 6.888 4.404 1.802.145 3.367-.56 4.779-1.64 2.156-1.651 3.527-3.863 4.394-6.375 2.05-5.937 3.629-12.013 4.876-18.16 1.077-5.316 1.915-10.68 2.846-16.025.027-.157-.042-.401-.157-.49" fill="#FFF" mask="url(#l)"/></g></g></svg>