<svg viewBox="0 0 800 512"
    xmlns="http://www.w3.org/2000/svg" fill-rule="evenodd" clip-rule="evenodd" stroke-linejoin="round" stroke-miterlimit="2">
    <path fill="none" d="M0 0h800v511.161H0z"/>
    <clipPath id="a">
        <path d="M0 0h800v511.161H0z"/>
    </clipPath>
    <g clip-path="url(#a)" fill="#4fa9dd" fill-rule="nonzero">
        <path d="M176.208 377.525c-.146 10.434-.401 20.845-3.512 30.942-.059.189-.091.387-.151.576-4.322 13.484-13.021 17.14-25.813 10.857-5.122-2.515-9.264-6.174-12.365-10.929-8.624-13.228-11.097-27.852-9.487-43.313 2.38-22.857 12.848-42.525 24.615-61.644 2.653-4.311 5.456-8.554 8.521-12.576.991-1.3 3.124-2.569 4.58-2.413 1.213.13 2.845 2.221 3.179 3.696 2.272 10.041 4.896 20.067 6.17 30.252 1.945 15.538 2.923 31.198 4.232 46.812.215 2.563.031 5.16.031 7.74m316.387-132.36c-.535-.413-2.107.09-2.946.616-.763.478-1.362 1.464-1.686 2.353-1.559 4.285-3.357 8.525-4.423 12.938-5.288 21.867-10.632 43.728-15.467 65.698-7.395 33.605-14.798 67.186-25.683 99.893-3.018 9.067-5.985 18.106-11.675 25.944-7.004 9.646-19.233 9.537-25.457-.577-2.507-4.073-4.485-8.746-5.505-13.409-2.454-11.213-4.226-22.576-6.226-33.888-3.724-21.073-5.01-42.399-5.68-63.717-.518-16.482.159-33.009.551-49.509.185-7.837.784-15.676 1.486-23.487.879-9.778 1.986-19.537 3.123-29.289 1.436-12.311 2.981-24.608 4.519-36.907 1.243-9.937 2.638-19.856 3.797-29.802 1.367-11.725 2.559-23.469 3.815-35.205 1.139-10.649 2.267-21.301 3.394-31.952 1.063-10.062 1.872-20.158 3.24-30.177 1.432-10.485 2.291-20.906.351-31.404-2.46-13.306-7.646-25.251-17.511-34.803-4.526-4.384-9.916-7.591-16.199-8.245-11.77-1.226-22.294 2.392-31.821 9.295-16.048 11.631-30.086 25.42-43.003 40.34-22.2 25.64-44.238 51.422-66.226 77.245-15.99 18.779-31.79 37.718-47.669 56.59-2.175 2.585-4.195 5.315-6.532 7.742-.838.869-2.62 1.678-3.573 1.352-.94-.321-1.705-2.039-1.983-3.271-4.325-19.138-8.332-38.35-12.894-57.43-2.982-12.466-7.172-24.589-13.59-35.796-5.521-9.645-13.465-16.145-24.641-17.994-9.312-1.542-18.64-1-27.836.942-15.588 3.292-29.386 10.592-41.625 20.48-16.859 13.621-33.208 27.871-49.766 41.862-1.824 1.54-3.597 3.141-5.385 4.722-2.083 1.843-2.323 4.1-1.224 6.491 1.07 2.325 3.275 1.504 5.025 1.371 1.442-.11 2.961-.617 4.231-1.33 6.483-3.64 13.148-7.032 19.275-11.207 10.347-7.056 20.441-14.498 30.453-22.029 14.854-11.173 33.133-5.406 42.271 7.308 5.68 7.901 9.903 16.567 13.169 25.637 5.233 14.539 6.999 29.883 9.565 45.018 2.882 17 5.417 34.06 8.328 51.055 1.274 7.435 1.068 14.216-3.837 20.602-3.979 5.182-6.976 11.107-10.67 16.524-14.355 21.051-25.877 43.494-34.067 67.653-3.566 10.517-6.179 21.26-5.977 32.323.16 8.784 1.309 17.619 2.809 26.295 2.849 16.47 8.126 32.132 17.777 46.019 5.24 7.54 11.886 13.502 20.846 16.105 15.184 4.412 29.12 1.296 41.639-8.088 10.679-8.003 17.097-19.24 22.465-31.097 9.725-21.489 12.495-44.476 13.05-67.656.592-24.733.327-49.512-2.191-74.174-1.541-15.09-3.475-30.137-5.229-45.205-.593-5.083-1.817-10.051 2.03-14.751 26.394-32.242 52.359-64.841 79.069-96.818 13.761-16.472 28.658-32.006 43.312-47.713 2.97-3.184 6.966-5.567 10.824-7.72 3.959-2.209 7.236-.774 9.379 3.235 1.784 3.339 1.647 6.847 1.145 10.442-2.944 21.109-6.055 42.2-8.713 63.346a1101.718 1101.718 0 00-4.929 47.347c-1.297 15.832-2.221 31.707-2.83 47.582-.436 11.321-.086 22.671-.086 34.009l-.945.047c1.121 21.717 1.96 43.453 3.456 65.143 1.064 15.434 3.206 30.79 4.514 46.211 1.529 18.022 4.252 35.834 8.588 53.383 2.71 10.971 5.161 22.076 11.054 31.943 9.716 16.266 23.865 25.907 42.897 27.428 11.225.898 20.973-3.485 29.767-10.218 13.43-10.278 21.964-24.062 27.369-39.707 12.771-36.974 22.602-74.812 30.365-113.104 6.71-33.105 11.928-66.513 17.726-99.802.171-.977-.265-2.498-.974-3.048"/>
        <path d="M552.337 226.362c-17.856 1.73-24.481 19.009-24.481 40.032h51.553c.288-19.295-5.76-42.337-27.072-40.032m68.544 59.327h-91.296c4.609 25.923 18.145 43.202 43.489 43.202 20.736 0 31.677-8.065 39.455-21.888l4.895 1.441c-4.033 18.143-18.144 44.637-57.6 44.637-44.352 0-77.759-23.037-77.759-73.439 0-45.793 29.377-76.032 76.031-76.032 36.576 0 67.105 26.787 62.785 82.079M752.768 273.596c-4.32-29.092-16.703-50.976-42.336-48.387-23.617 2.595-30.529 28.802-25.92 58.179 4.321 29.376 17.567 50.976 42.911 48.383 25.632-2.594 29.952-28.514 25.345-58.175M800 274.748c0 44.637-30.241 78.333-84.096 78.333-42.625 0-78.624-22.752-78.624-71.134 0-44.641 30.24-78.337 84.097-78.337C764 203.61 800 226.362 800 274.748"/>
    </g>
</svg>