<svg width="224" height="322" xmlns="http://www.w3.org/2000/svg" xmlns:xlink="http://www.w3.org/1999/xlink"><defs><path id="a" d="M.435.286h69.238v102.683H.435z"/><path d="M.494 26.603c0 10.903 3.496 20.05 18.059 25.953 2.14.868 4.363.868 6.505 0 13.304-5.393 18.058-15.05 18.058-25.953 0-11.937-8.39-19.598-21.311-26.153C8.885 7.005.495 14.666.495 26.603" id="c"/><path d="M.418 2.956C1.4 4.459 2.855 5.411 4.48 5.411c1.625 0 3.08-.952 4.061-2.455C7.561 1.454 6.105.501 4.48.501S1.4 1.454.418 2.956" id="e"/><path d="M.593 2.558c.98 1.502 2.435 2.455 4.06 2.455 1.627 0 3.08-.953 4.062-2.455C7.734 1.056 6.28.103 4.653.103c-1.625 0-3.08.953-4.06 2.455" id="g"/><path d="M.049.591v35.74h168.764c9.869 0 17.868-8 17.868-17.87 0-9.87-8-17.87-17.868-17.87H.049z" id="i"/><path id="k" d="M.525.053h193.828v50.631H.525z"/><path d="M.308.616v35.74H169.07c9.869 0 17.87-8.001 17.87-17.87 0-9.87-8.001-17.87-17.87-17.87H.308z" id="m"/><path d="M11.927.539C5.384.539.08 5.843.08 12.386v12.045c0 6.543 5.305 11.848 11.848 11.848h174.785V.539H11.927z" id="o"/><path id="q" d="M0 .443h101.692v72.32H0z"/></defs><g fill="none" fill-rule="evenodd"><g transform="translate(115.128 .34)"><mask id="b" fill="#fff"><use xlink:href="#a"/></mask><path d="M.435 18.184C1.64.504 27.996-8.07 40.712 11.404c12.83 19.648-18.488 35.588.778 47.831 7.444 4.73 32.56 7.916 27.52 41.653l-40.586 2.08s13.28-15.961-.382-24.771C6.835 64.522 7.389 50.98 15.736 37.787c1.948-3.08 4.097-6.082 2.08-8.955-1.498-2.135-4.276-3.544-8.886-2.024L.435 18.184z" fill="#FF39B0" mask="url(#b)"/></g><path d="M99.253 44.693a3.915 3.915 0 11-7.83 0 3.915 3.915 0 017.83 0" fill="#FF9E32"/><path d="M141.453 44.693a3.915 3.915 0 11-7.83 0 3.915 3.915 0 017.83 0" fill="#FFB0A6"/><path d="M197.21 107.096c-2.506-16.383-17.817-27.632-34.199-25.126l-.055.008c-2.855.442-5.66-1.063-6.827-3.705-4.166-9.43-14.26-15.29-24.938-13.658a23.31 23.31 0 00-14.672 8.45 23.31 23.31 0 00-14.672-8.45c-10.68-1.633-20.772 4.229-24.94 13.658-1.167 2.642-3.97 4.147-6.826 3.705a1.957 1.957 0 01-.055-.008c-16.381-2.506-31.693 8.743-34.199 25.126-2.505 16.382 8.745 31.695 25.125 34.2 16.382 2.506 94.751 2.506 111.133 0 16.38-2.505 27.63-17.818 25.124-34.2" fill="#00B7B9"/><path d="M104.061 53.06s9.14 7.011 23.54-.553c0 0 2.492 13.59 2.512 15.887.038 4.33-5.938 9.941-14.288 9.941-6.604 0-13.619-4.014-13.027-10.23.218-2.286 1.263-15.045 1.263-15.045" fill="#002E84"/><path d="M138.222 38.206c0-11.937-8.39-19.598-21.311-26.153-12.92 6.555-21.31 14.216-21.31 26.153 0 10.903 3.495 20.05 18.057 25.953 2.142.868 4.364.868 6.506 0 13.303-5.393 18.058-15.05 18.058-25.953" fill="#FF9E32"/><g transform="translate(95.106 11.603)"><mask id="d" fill="#fff"><use xlink:href="#c"/></mask><path d="M69.631 75.968c.93-.817.94-2.153.225-3.083-3.772-4.856-5.5-14.48-4.74-20.953.22-2.157 1.466-4.103 2.608-5.843 1.453-2.252 2.907-4.402 4.565-6.55 2.384-3.069 4.666-6.241 6.026-9.933 1.464-4 1.596-8.42.902-12.536-.79-4.94-3.538-9.378-6.804-12.997-2.552-2.792-5.517-5.278-9.002-6.842-4.817-2.293-11.083-3.052-16.533-2.778a27.703 27.703 0 00-12.666 3.62c-2.58 1.524-4.751 3.464-6.924 5.61-3.313 3.576-6.69 9.247-6.458 13.219.186 3.188 1.062 7.449.187 11.537-1.158 5.406-5.919 3.638-5.91 6.296.004 1.07 3.73 2.997 3.73 2.997s.596 4.508.647 5.94c.366 10.284 4.151 17.027 12.66 11.878 1.029-.623 3.082-.614 4.216 1.834 6.982 15.068-.468 27.662.456 27.77 14.7 5.39 30.851-7.452 32.815-9.186" fill="#FFB0A6" mask="url(#d)"/></g><path d="M122.603 36.814s3.22-2.523 7.525-2.102c.861.084 3.416.554 3.416.554.297.042.416-.37.143-.493 0 0-3.802-2.643-7.132-1.644-.733.22-2.068.68-3.351 1.46-1.06.643-.601 2.225-.601 2.225" fill="#FF39B0"/><path d="M128.368 42.669c1.626 0 3.08-.952 4.062-2.455-.982-1.502-2.436-2.455-4.062-2.455-1.625 0-3.08.953-4.061 2.455.981 1.503 2.436 2.455 4.061 2.455" fill="#FFF"/><g transform="translate(123.888 37.258)"><mask id="f" fill="#fff"><use xlink:href="#e"/></mask><path d="M8.054 5.25a3.517 3.517 0 11-7.033 0 3.517 3.517 0 017.033 0" fill="#002E84" mask="url(#f)"/></g><path d="M112.642 36.416s-3.22-2.523-7.525-2.102c-.861.083-3.417.553-3.417.553-.296.042-.415-.368-.142-.492 0 0 3.801-2.644 7.132-1.644.733.22 2.067.68 3.351 1.46 1.059.643.6 2.225.6 2.225" fill="#FF39B0"/><path d="M107.268 42.271c1.626 0 3.08-.953 4.062-2.455-.981-1.502-2.436-2.456-4.062-2.456-1.625 0-3.08.954-4.061 2.456.981 1.502 2.436 2.455 4.061 2.455" fill="#FFF"/><g transform="translate(102.615 37.258)"><mask id="h" fill="#fff"><use xlink:href="#g"/></mask><path d="M8.228 5.25a3.517 3.517 0 11-7.033 0 3.517 3.517 0 017.033 0" fill="#002E84" mask="url(#h)"/></g><path d="M118.716 53.699c-.389-.683-1.309-1.055-1.993-.565-.109.062-.32.309-.54.475-.102.078-.212.154-.336.154-.123-.001-.232-.077-.335-.157-.217-.169-.426-.417-.534-.48-.68-.497-1.603-.132-1.998.546-.64 1.1-.747 1.885-.534 2.16 1.154 1.5 2.487 1.828 3.383 1.8.895.036 2.23-.28 3.4-1.768.215-.274.116-1.06-.513-2.165" fill="#FF39B0"/><path d="M134.238 50.759c0 1.98-1.961 3.583-4.38 3.583-2.418 0-4.379-1.604-4.379-3.583s1.96-3.583 4.38-3.583c2.418 0 4.379 1.604 4.379 3.583" fill="#FF9E32"/><path d="M107.83 50.494c0 1.979-1.961 3.583-4.38 3.583-2.418 0-4.379-1.604-4.379-3.583s1.96-3.584 4.38-3.584c2.418 0 4.378 1.605 4.378 3.584" fill="#FF39B0"/><path d="M188.802 219.947H20.29v-50.632h168.513c13.981 0 25.315 11.334 25.315 25.316s-11.334 25.316-25.315 25.316" fill="#002E84"/><path d="M185.081 212.501H16.317v-35.74h168.764c9.869 0 17.87 8.001 17.87 17.87 0 9.87-8.001 17.87-17.87 17.87" fill="#FFF"/><g transform="translate(16.268 176.17)"><mask id="j" fill="#fff"><use xlink:href="#i"/></mask><path fill="#002E84" mask="url(#j)" d="M-2.433 8.285h180.18v-.993H-2.433zm0 7.115h180.18v-.993H-2.433zm0 7.115h180.18v-.992H-2.433zm0 7.115h180.18v-.993H-2.433z"/></g><g transform="translate(18.77 270.03)"><mask id="l" fill="#fff"><use xlink:href="#k"/></mask><path d="M169.038 50.684H.525V.053h168.513c13.982 0 25.315 11.334 25.315 25.316 0 13.98-11.333 25.315-25.315 25.315" fill="#002E84" mask="url(#l)"/></g><path d="M184.088 313.268H15.324v-35.74h168.764c9.869 0 17.87 8.001 17.87 17.87 0 9.87-8.001 17.87-17.87 17.87" fill="#FFF"/><g transform="translate(15.017 276.913)"><mask id="n" fill="#fff"><use xlink:href="#m"/></mask><path fill="#002E84" mask="url(#n)" d="M-2.174 8.31h180.18v-.993H-2.174zm0 7.114h180.18v-.992H-2.174zm0 7.116h180.18v-.994H-2.174zm0 7.114h180.18v-.992H-2.174z"/></g><g><path d="M18.037 219.947h177.217v50.632H18.037c-9.174 0-16.61-7.438-16.61-16.612v-17.408c0-9.174 7.436-16.612 16.61-16.612" fill="#00B7B9"/><path d="M23.823 227.393h175.403v35.74H23.823c-6.202 0-11.23-5.028-11.23-11.23v-13.28c0-6.202 5.028-11.23 11.23-11.23" fill="#FFB0A6"/></g><g transform="translate(12.514 226.854)"><mask id="p" fill="#fff"><use xlink:href="#o"/></mask><path fill="#00B7B9" mask="url(#p)" d="M9.013 29.577h180.18v-.992H9.013zm0-7.115h180.18v-.992H9.013zm0-7.114h180.18v-.993H9.013zm0-7.116h180.18V7.24H9.013z"/></g><g><path fill="#002E84" d="M159.816 172.213H63.873l-9.956-81.245h115.855z"/><path d="M165.226 128.197s41.656-11.05 57.043 14.226c15.387 25.276-90.512 57.774-90.512 57.774l-8.146-20.762 38.14-24.432 3.475-26.806z" fill="#FF9E32"/><path d="M86.386 186.235c-8.84-1.341-18.018-2.057-20.703 2.227-4.525 7.222 1.76 12.07 19.008 14.443.239.033.475.058.713.09-4.506-8.18-2.213-13.532.982-16.76" fill="#00B7B9"/><path d="M131.975 198.73l-6.954-16.922s-17.724 6.8-23.133 6.654c-3.54-.095-9.441-1.308-15.502-2.227-3.196 3.228-5.488 8.58-.982 16.759 25.913 3.374 46.571-4.263 46.571-4.263" fill="#C4665C"/><path d="M137.41 188.04c8.84-1.34 18.02-2.057 20.704 2.227 4.525 7.222-1.76 12.071-19.008 14.444-.239.033-.474.058-.712.089 4.505-8.18 2.212-13.532-.983-16.76" fill="#00B7B9"/><path d="M91.821 200.537l7.926-15.81s16.753 5.685 22.162 5.54c3.54-.094 9.442-1.308 15.501-2.227 3.196 3.228 5.489 8.58.984 16.76-25.914 3.374-46.573-4.263-46.573-4.263" fill="#FFB0A6"/><g transform="translate(0 129.24)"><mask id="r" fill="#fff"><use xlink:href="#q"/></mask><path d="M92.04 72.762l9.652-20.194-39.213-24.82-3.023-22.69s-42.54-15.346-57.928 9.93C-13.86 40.264 92.04 72.762 92.04 72.762" fill="#00AADC" mask="url(#r)"/></g><path d="M92.554 31.67s12.458 1.505 20.784-3.698c2.142-1.34 5.607-7.802 5.607-7.802a13.295 13.295 0 0011.667 9.623l8.236.697s-.147-20.936-24.697-20.287c-21.31.564-21.597 21.467-21.597 21.467" fill="#FF39B0"/><path d="M135.658 20.077C130.34 9.074 120.327 9.191 119.901 9.2a1.386 1.386 0 00-1.351 1.416 1.39 1.39 0 001.39 1.36h.023c.347-.005 8.679-.036 13.197 9.31a1.388 1.388 0 002.498-1.208" fill="#002E84"/><path d="M53.469 116.284c8.332 6.879 24.578 11.119 24.578 11.119a.61.61 0 01.325.847l-.228.445a.61.61 0 01-.697.311l-6.638-1.73a.61.61 0 00-.685.292l-.293.522 11.348 5.498a.61.61 0 01.22.917v.001a.609.609 0 01-.717.196l-9.573-3.917a.61.61 0 00-.496 1.113l9.42 4.54c.36.174.632.68.532 1.068-.185.722-1.078.458-1.325.342l-9.934-4.667a.61.61 0 00-.745.183l-.01.014a.61.61 0 00.19.9l7.968 4.428c.242.134 1.133.413.949 1.136-.186.722-1.236.374-1.583.2l-8.49-4.239a.61.61 0 00-.704.116l-.028.028a.61.61 0 00.12.954s5.021 2.797 6.566 3.891c.673.478 1.396.663.488 1.2-.2.119-1.589-.466-1.8-.562-2.202-1.01-14.13-3.981-24.314-13.637m119.247-11.509c-8.333 6.879-24.58 11.119-24.58 11.119a.61.61 0 00-.324.847l.228.445a.61.61 0 00.697.311l6.638-1.73a.61.61 0 01.686.292l.292.522-11.348 5.498a.61.61 0 00-.22.917v.001a.61.61 0 00.718.196l9.572-3.917a.61.61 0 01.496 1.113l-9.419 4.54c-.362.174-.633.68-.533 1.068.185.722 1.078.458 1.326.342l9.933-4.667a.609.609 0 01.745.183l.011.014a.61.61 0 01-.19.9l-7.969 4.428c-.241.134-1.133.413-.948 1.136.185.722 1.235.374 1.583.2l8.489-4.239a.61.61 0 01.704.116l.028.028a.61.61 0 01-.12.954s-5.02 2.797-6.565 3.891c-.674.478-1.397.663-.49 1.2.2.119 1.59-.466 1.802-.562 2.201-1.01 14.128-3.981 24.314-13.637" fill="#FFB0A6"/><path d="M87.842 32.48C85.546 16.93 71.081 6.187 55.532 8.483c-15.547 2.297-26.29 16.763-23.994 32.312 2.2 14.902 15.58 25.389 30.377 24.213 2.617 2.108 8.584 6.353 14.441 6.567 0 0-2.716-6.582-.787-11.314 8.81-5.93 13.929-16.574 12.273-27.781" fill="#FF9E32"/><path d="M105.094 140.203c-.012.83-.032 1.658-.28 2.461l-.012.046c-.343 1.072-1.035 1.363-2.053.863a2.444 2.444 0 01-.983-.869c-.686-1.052-.883-2.216-.754-3.445.189-1.818 1.02-3.382 1.957-4.903.21-.343.434-.68.677-1 .08-.104.25-.205.365-.192.097.01.227.177.253.294.18.798.39 1.596.49 2.406.155 1.235.233 2.481.337 3.723.017.204.003.41.003.616m25.163-10.527c-.043-.033-.168.007-.235.048a.375.375 0 00-.134.188c-.124.34-.267.678-.352 1.028-.42 1.74-.845 3.479-1.23 5.226-.588 2.672-1.176 5.344-2.042 7.945-.24.721-.477 1.44-.928 2.063-.558.768-1.53.76-2.026-.045a3.51 3.51 0 01-.437-1.067c-.195-.892-.337-1.795-.496-2.695-.296-1.677-.398-3.373-.451-5.068-.042-1.31.013-2.626.044-3.938.014-.624.062-1.247.118-1.868.07-.777.157-1.553.248-2.33.114-.978.238-1.957.36-2.935.099-.79.21-1.579.301-2.37.11-.933.204-1.866.304-2.8l.27-2.542c.085-.8.15-1.603.257-2.4.114-.833.182-1.662.028-2.497-.195-1.059-.608-2.009-1.392-2.768-.36-.35-.789-.604-1.289-.656-.936-.098-1.773.19-2.53.74-1.277.924-2.393 2.02-3.42 3.208a983.531 983.531 0 00-5.268 6.143c-1.271 1.494-2.528 3-3.79 4.5-.174.207-.334.424-.52.617-.067.069-.209.133-.284.108-.075-.026-.136-.163-.158-.26-.344-1.523-.663-3.05-1.025-4.568-.238-.992-.571-1.956-1.081-2.847-.44-.768-1.071-1.285-1.96-1.431-.74-.123-1.483-.08-2.214.074-1.24.262-2.337.843-3.31 1.629-1.342 1.084-2.642 2.217-3.959 3.33-.144.122-.286.25-.428.375-.166.147-.184.326-.097.517.085.184.26.12.4.108a.848.848 0 00.336-.105c.516-.29 1.046-.56 1.533-.891a65.742 65.742 0 002.422-1.752c1.181-.89 2.636-.43 3.362.58a8.275 8.275 0 011.047 2.04c.416 1.156.557 2.376.76 3.58.23 1.352.432 2.709.663 4.061.102.591.085 1.13-.305 1.638-.316.413-.555.884-.849 1.315a22.126 22.126 0 00-2.709 5.38c-.283.837-.491 1.692-.475 2.572.013.698.103 1.4.223 2.09.226 1.311.646 2.556 1.414 3.66.417.6.945 1.074 1.658 1.282 1.208.351 2.316.103 3.311-.643.85-.637 1.36-1.53 1.787-2.474.774-1.71.994-3.537 1.038-5.38.047-1.968.026-3.94-.174-5.9-.123-1.201-.277-2.397-.416-3.596-.047-.404-.144-.8.161-1.173 2.1-2.564 4.164-5.157 6.29-7.7 1.093-1.31 2.278-2.546 3.444-3.796.236-.253.553-.442.86-.613.316-.176.576-.062.746.257.142.265.131.544.092.83-.234 1.68-.482 3.356-.694 5.039a87.319 87.319 0 00-.392 3.765 87.815 87.815 0 00-.225 3.785c-.035.9-.006 1.803-.006 2.705-.025 0-.05.002-.076.004.09 1.727.156 3.456.275 5.181.085 1.227.255 2.449.36 3.675.12 1.434.338 2.85.682 4.246.216.873.411 1.756.88 2.54.772 1.295 1.897 2.06 3.411 2.182.893.072 1.668-.277 2.368-.813 1.068-.817 1.747-1.914 2.176-3.158 1.016-2.94 1.798-5.95 2.415-8.995.534-2.633.95-5.29 1.41-7.938.013-.078-.02-.2-.077-.242" fill="#FFF"/></g></g></svg>