<svg viewBox="0 0 530 464" xmlns="http://www.w3.org/2000/svg" fill-rule="evenodd" clip-rule="evenodd" stroke-linejoin="round" stroke-miterlimit="2"><path fill="none" d="M0 0h529.65v463.943H0z"/><path d="M369.522 245.246h-90.933v-79.452c0-15.173 12.301-27.473 27.474-27.473h47.25c8.951 0 16.209 7.257 16.209 16.21v90.715zM436.182 139.387l-66.917.992v-39.803c0-18.388 14.907-33.296 33.295-33.296h.327c18.388 0 33.295 14.908 33.295 33.296v38.811zM347.556 442.632l18.138-3.09 7.408 7.977s18.123 2.331 23.781 16.242l-39.354-.033-2.746-3.934-.85 3.932-8.431-.007 2.054-21.087z" fill="#002e84"/><path d="M305.377 442.632l18.139-3.09 7.408 7.977s18.123 2.331 23.781 16.242l-39.354-.033-2.747-3.934-.849 3.932-8.431-.007 2.053-21.087z" fill="#002e84"/><path d="M296.209 259.874v188.015H335.8l2.332-153.802 3.272 153.802h39.592V259.874h-84.787z" fill="#00aadc"/><path d="M303.675 254.355c.444 13.733 10.143 27.342 10.143 27.342a.687.687 0 01-.396.941l-.532.184a.683.683 0 01-.807-.29l-4.046-6.569a.684.684 0 00-.784-.296l-.644.197 4.94 13.294a.686.686 0 01-.534.916h-.002a.687.687 0 01-.735-.399l-4.727-10.629a.686.686 0 00-1.269.518l4.119 11.015c.158.423-.016 1.045-.4 1.283-.711.443-1.23-.467-1.341-.753l-4.438-11.521a.686.686 0 00-.748-.43l-.019.004a.684.684 0 00-.546.879l3.028 9.796c.092.298.599 1.217-.114 1.66-.712.443-1.294-.657-1.441-1.069l-3.597-10.048a.69.69 0 00-.663-.455l-.045.002a.686.686 0 00-.644.869s1.902 6.178 2.305 8.268c.176.912.618 1.625-.536 1.355-.255-.059-.929-1.615-1.025-1.858-.696-1.756-8.149-12.896-10.297-26.633l15.795-7.573zM361.061 294.133l40.959-.094c-3.449 27.614-6.47 62.417-4.335 68.668 6.714 19.647.302 47.913-.39 50.515-.871 3.278-1.355 7.403-1.596 11.695l-16.006.037c-.198-4.121-.913-7.568-1.348-8.991-9.423-30.857-3.572-56.393-3.572-56.393-6.783-27.571-11.194-48.688-13.712-65.437M437.495 359.427s5.949 25.509-3.355 56.409c-.43 1.424-1.131 4.874-1.314 8.996l-16.005.037c-.258-4.291-.758-8.414-1.642-11.688-.702-2.6-7.222-30.836-.584-50.512 2.112-6.261-1.043-41.05-4.6-68.648l40.96-.095c-2.453 16.761-6.784 37.899-13.46 65.501" fill="#ffb0a6"/><path d="M437.739 463.943l-2.67-40.299-23.973.921-1.087 21.376c-4.063.156-7.497.869-10.422 1.93l1.065 16.072h37.087z" fill="#ff39b0"/><path d="M399.587 447.871l-1.606-24.226-23.972.919-1.086 21.376c-18.274.703-24.096 12.484-25.828 18.003h37.087c1.347-4.292 5.179-12.359 15.405-16.072" fill="#ff9e32"/><path d="M384.182 463.943h16.47l-1.065-16.072c-10.226 3.713-14.058 11.78-15.405 16.072M402.76 161.651c-2.253-11.22-.647-22.681-19.392-22.265-6.008.133-17.857 2.183-28.195 4.197a745.32 745.32 0 00-10.998 2.232c-4.873 1.023-8.131 1.753-8.131 1.753h-30.162c-52.068 2.233-25.54 119.247-25.54 119.247l103.629-3.47 18.789-101.694z" fill="#ff9e32"/><path d="M309.661 117.406c0 2.985-2.334 5.405-5.213 5.405-2.88 0-5.214-2.42-5.214-5.405 0-2.984 2.334-5.404 5.214-5.404 2.879 0 5.213 2.42 5.213 5.404" fill="#00b7b9"/><path d="M365.86 117.406c0 2.985-2.334 5.405-5.214 5.405-2.879 0-5.213-2.42-5.213-5.405 0-2.984 2.334-5.404 5.213-5.404 2.88 0 5.214 2.42 5.214 5.404" fill="#ff39b0"/><path d="M319.218 132.222s9.845 7.827 25.35-.617c0 0 2.683 15.169 2.705 17.733.041 4.833-6.395 11.097-15.386 11.097-7.112 0-14.665-4.481-14.028-11.418.235-2.553 1.359-16.795 1.359-16.795" fill="#c4665c"/><path d="M361.557 108.452c0-16.478-11.172-23.756-28.38-32.804-17.207 9.048-28.38 16.326-28.38 32.804 0 15.05 4.655 27.676 24.048 35.825 2.853 1.199 5.812 1.199 8.665 0 17.716-7.443 24.047-20.775 24.047-35.825" fill="#00b7b9"/><clipPath id="a"><path d="M361.557 108.452c0-16.478-11.172-23.756-28.38-32.804-17.207 9.048-28.38 16.326-28.38 32.804 0 15.05 4.655 27.676 24.048 35.825 2.853 1.199 5.812 1.199 8.665 0 17.716-7.443 24.047-20.775 24.047-35.825"/></clipPath><g clip-path="url(#a)"><path d="M396.869 176.595c1.239-1.127 1.251-2.972.3-4.255-5.023-6.703-7.325-19.991-6.312-28.924.293-2.979 1.951-5.664 3.473-8.066 1.935-3.109 3.87-6.076 6.079-9.042 3.175-4.236 6.214-8.615 8.024-13.711 1.952-5.522 2.125-11.622 1.202-17.305-1.053-6.818-4.711-12.945-9.061-17.941-3.398-3.854-7.348-7.286-11.989-9.445-6.414-3.164-14.759-4.213-22.018-3.836a35.95 35.95 0 00-16.869 4.997c-3.435 2.106-6.326 4.783-9.219 7.743-4.876 5.459-8.444 21.041-8.6 18.25.247 4.401 1.413 10.281.248 15.925-1.541 7.463-7.882 5.023-7.869 8.692.005 1.477 4.968 4.136 4.968 4.136s.792 6.224.86 8.199c.488 14.199 5.529 23.505 16.86 16.398 1.37-.859 4.104-.848 5.614 2.531 9.299 20.8-.623 38.185.608 38.335 19.577 7.441 41.086-10.286 43.701-12.681" fill="#ff39b0"/></g><path d="M305.269 101.377l23.133-.419c4.353-.078 8.185-2.994 9.562-7.275.606 3.977 3.973 6.863 7.855 6.732l14.942-.504s-.176-26.013-29.604-25.206c-25.545.701-25.888 26.672-25.888 26.672" fill="#002e84"/><path d="M319.054 123.727c0 2.58-2.453 4.671-5.479 4.671-3.026 0-5.478-2.091-5.478-4.671 0-2.581 2.452-4.672 5.478-4.672s5.479 2.091 5.479 4.672M357.581 123.727c0 2.58-2.453 4.671-5.479 4.671-3.026 0-5.478-2.091-5.478-4.671 0-2.581 2.452-4.672 5.478-4.672s5.479 2.091 5.479 4.672" fill="#ff9e32"/><path d="M348.435 117.727c2.164 0 4.102-1.316 5.409-3.389-1.307-2.074-3.245-3.389-5.409-3.389-2.164 0-4.102 1.315-5.409 3.389 1.307 2.073 3.245 3.389 5.409 3.389" fill="#fff"/><g><path d="M354.046 114.293c0 1.871-1.463 3.388-3.27 3.388-1.805 0-3.269-1.517-3.269-3.388 0-1.873 1.464-3.389 3.269-3.389 1.807 0 3.27 1.516 3.27 3.389" fill="#002e84"/></g><g><path d="M348.214 105.656c-2.807 0-5.253 1.599-6.539 3.965h13.078c-1.287-2.366-3.732-3.965-6.539-3.965" fill="#002e84"/><path d="M318.215 118.643c2.164 0 4.102-1.316 5.409-3.389-1.307-2.074-3.245-3.389-5.409-3.389-2.165 0-4.103 1.315-5.409 3.389 1.306 2.073 3.244 3.389 5.409 3.389" fill="#fff"/></g><g><path d="M323.826 115.208c0 1.872-1.464 3.39-3.27 3.39s-3.269-1.518-3.269-3.39 1.463-3.389 3.269-3.389 3.27 1.517 3.27 3.389" fill="#002e84"/></g><g><path d="M317.994 106.571c-2.808 0-5.253 1.6-6.539 3.966h13.077c-1.286-2.366-3.731-3.966-6.538-3.966" fill="#002e84"/><path d="M336.669 127.94c0 2.681-2.096 4.855-4.683 4.855-2.587 0-4.683-2.174-4.683-4.855h9.366z" fill="#fff"/><path d="M350.042 145.218s92.896-28.743 112.057 15.414l-112.057-15.414z" fill="#ff9e32"/><path d="M346.765 144.897s13.032 34.148 13.581 84.118c0 0 21.331 13.328 4.331-85.971 0 0-8.03-8.958-17.912 1.853" fill="#002e84"/><path d="M436.969 208.865l4.268-16.086 19.228-.095s7.582-42.255-26.106-42.389c-7.382-.029-52.701-.684-59.996.497-33.01 5.343-25.167 41.987-25.167 41.987h17.058l4.272 16.099c1.274 4.8 1.079 9.91-.773 14.518a27.675 27.675 0 01-4.326 7.273 50.275 50.275 0 00-11.516 32.096v63.55h99.662v-63.55a50.275 50.275 0 00-11.513-32.092 27.67 27.67 0 01-4.017-6.541c-2.096-4.805-2.419-10.2-1.074-15.267" fill="#ff39b0"/><clipPath id="b"><path d="M436.969 208.865l4.268-16.086 19.228-.095s7.582-42.255-26.106-42.389c-7.382-.029-52.701-.684-59.996.497-33.01 5.343-25.167 41.987-25.167 41.987h17.058l4.272 16.099c1.274 4.8 1.079 9.91-.773 14.518a27.675 27.675 0 01-4.326 7.273 50.275 50.275 0 00-11.516 32.096v63.55h99.662v-63.55a50.275 50.275 0 00-11.513-32.092 27.67 27.67 0 01-4.017-6.541c-2.096-4.805-2.419-10.2-1.074-15.267"/></clipPath><g fill="#fff" clip-path="url(#b)"><path d="M461.32 182.524a1.983 1.983 0 11-3.967.001 1.983 1.983 0 013.967-.001M444.462 174.095a1.983 1.983 0 11-3.967 0 1.984 1.984 0 113.967 0M461.32 165.667a1.983 1.983 0 11-3.968-.002 1.983 1.983 0 013.968.002M444.462 157.237a1.983 1.983 0 11-3.967.001 1.983 1.983 0 013.967-.001M461.32 148.808a1.983 1.983 0 11-3.967.001 1.983 1.983 0 013.967-.001M461.32 216.241a1.983 1.983 0 11-3.965 0 1.983 1.983 0 013.965 0M444.462 207.812a1.983 1.983 0 11-3.966 0 1.983 1.983 0 013.966 0M461.32 199.383a1.983 1.983 0 11-3.966 0 1.983 1.983 0 013.966 0M444.462 190.953a1.983 1.983 0 11-3.967.001 1.983 1.983 0 013.967-.001"/><path d="M461.32 182.524a1.983 1.983 0 11-3.967.001 1.983 1.983 0 013.967-.001M461.32 249.957a1.983 1.983 0 11-3.966 0 1.983 1.983 0 013.966 0M444.462 241.529a1.983 1.983 0 11-3.969-.001 1.983 1.983 0 013.969.001M461.32 233.099a1.983 1.983 0 11-3.967.001 1.983 1.983 0 013.967-.001M444.462 224.67a1.983 1.983 0 11-3.967.001 1.983 1.983 0 013.967-.001M461.32 216.241a1.983 1.983 0 11-3.965 0 1.983 1.983 0 013.965 0M461.32 283.674a1.983 1.983 0 11-3.966 0 1.983 1.983 0 013.966 0M444.462 275.244a1.983 1.983 0 11-3.967.001 1.983 1.983 0 013.967-.001M461.32 266.815a1.983 1.983 0 11-3.967.001 1.983 1.983 0 013.967-.001M444.462 258.386a1.983 1.983 0 11-3.967.001 1.983 1.983 0 013.967-.001"/><path d="M461.32 249.957a1.983 1.983 0 11-3.966 0 1.983 1.983 0 013.966 0M444.462 308.961a1.983 1.983 0 11-3.967.001 1.983 1.983 0 013.967-.001M444.462 292.103a1.983 1.983 0 11-3.966 0 1.983 1.983 0 013.966 0M444.462 174.095a1.983 1.983 0 11-3.967 0 1.984 1.984 0 113.967 0M427.604 182.524a1.984 1.984 0 11-3.967 0 1.984 1.984 0 013.967 0M410.745 174.095a1.983 1.983 0 11-3.966 0 1.984 1.984 0 113.966 0M444.462 157.237a1.983 1.983 0 11-3.967.001 1.983 1.983 0 013.967-.001M427.604 165.667a1.983 1.983 0 11-3.965-.001 1.983 1.983 0 013.965.001M410.745 157.237a1.983 1.983 0 11-3.966.002 1.983 1.983 0 013.966-.002M427.604 148.808a1.984 1.984 0 11-3.967 0 1.984 1.984 0 013.967 0M444.462 207.812a1.983 1.983 0 11-3.966 0 1.983 1.983 0 013.966 0M427.604 216.241a1.983 1.983 0 11-3.966 0 1.983 1.983 0 013.966 0M410.745 207.812a1.983 1.983 0 11-3.966 0 1.983 1.983 0 013.966 0M444.462 190.953a1.983 1.983 0 11-3.967.001 1.983 1.983 0 013.967-.001M427.604 199.383a1.983 1.983 0 11-3.967 0 1.983 1.983 0 013.967 0M410.745 190.953a1.983 1.983 0 11-3.966.002 1.983 1.983 0 013.966-.002"/><path d="M427.604 182.524a1.984 1.984 0 11-3.967 0 1.984 1.984 0 013.967 0M444.462 241.529a1.983 1.983 0 11-3.969-.001 1.983 1.983 0 013.969.001M427.604 249.957a1.983 1.983 0 11-3.967 0 1.983 1.983 0 013.967 0M410.745 241.529a1.982 1.982 0 11-3.964 0 1.982 1.982 0 013.964 0M444.462 224.67a1.983 1.983 0 11-3.967.001 1.983 1.983 0 013.967-.001M427.604 233.099a1.984 1.984 0 11-3.967 0 1.984 1.984 0 013.967 0M410.745 224.67a1.983 1.983 0 11-3.966.002 1.983 1.983 0 013.966-.002M427.604 216.241a1.983 1.983 0 11-3.966 0 1.983 1.983 0 013.966 0M444.462 275.244a1.983 1.983 0 11-3.967.001 1.983 1.983 0 013.967-.001M427.604 283.674a1.983 1.983 0 11-3.967 0 1.983 1.983 0 013.967 0M410.745 275.244a1.983 1.983 0 11-3.966.002 1.983 1.983 0 013.966-.002M444.462 258.386a1.983 1.983 0 11-3.967.001 1.983 1.983 0 013.967-.001M410.745 258.386a1.983 1.983 0 11-3.966.002 1.983 1.983 0 013.966-.002"/><path d="M427.604 249.957a1.983 1.983 0 11-3.967 0 1.983 1.983 0 013.967 0M444.462 308.961a1.983 1.983 0 11-3.967.001 1.983 1.983 0 013.967-.001M427.604 317.39a1.983 1.983 0 11-3.966 0 1.983 1.983 0 013.966 0M410.745 308.961a1.983 1.983 0 11-3.966.002 1.983 1.983 0 013.966-.002M444.462 292.103a1.983 1.983 0 11-3.966 0 1.983 1.983 0 013.966 0M410.745 292.103a1.983 1.983 0 11-3.966 0 1.983 1.983 0 013.966 0M427.604 283.674a1.983 1.983 0 11-3.967 0 1.983 1.983 0 013.967 0M444.462 325.819a1.983 1.983 0 11-3.966 0 1.983 1.983 0 013.966 0M410.745 325.819a1.983 1.983 0 11-3.966 0 1.983 1.983 0 013.966 0"/><path d="M427.604 317.39a1.983 1.983 0 11-3.966 0 1.983 1.983 0 013.966 0M410.745 174.095a1.983 1.983 0 11-3.966 0 1.984 1.984 0 113.966 0M393.887 182.524a1.983 1.983 0 11-3.967.001 1.983 1.983 0 013.967-.001M377.029 174.095a1.983 1.983 0 11-3.966.002 1.983 1.983 0 013.966-.002M410.745 157.237a1.983 1.983 0 11-3.966.002 1.983 1.983 0 013.966-.002M393.887 165.667a1.983 1.983 0 11-3.968-.002 1.983 1.983 0 013.968.002M377.029 157.237a1.984 1.984 0 11-3.967 0 1.984 1.984 0 013.967 0M393.887 148.808a1.983 1.983 0 11-3.967.001 1.983 1.983 0 013.967-.001M410.745 207.812a1.983 1.983 0 11-3.966 0 1.983 1.983 0 013.966 0M393.887 216.241a1.983 1.983 0 11-3.965 0 1.983 1.983 0 013.965 0M377.029 207.812a1.983 1.983 0 11-3.967 0 1.983 1.983 0 013.967 0M410.745 190.953a1.983 1.983 0 11-3.966.002 1.983 1.983 0 013.966-.002M377.029 190.953a1.984 1.984 0 11-3.967 0 1.984 1.984 0 013.967 0"/><path d="M393.887 182.524a1.983 1.983 0 11-3.967.001 1.983 1.983 0 013.967-.001M410.745 241.529a1.982 1.982 0 11-3.964 0 1.982 1.982 0 013.964 0M393.887 249.957a1.983 1.983 0 11-3.966 0 1.983 1.983 0 013.966 0M377.029 241.529a1.983 1.983 0 11-3.965-.001 1.983 1.983 0 013.965.001M410.745 224.67a1.983 1.983 0 11-3.966.002 1.983 1.983 0 013.966-.002M377.029 224.67a1.984 1.984 0 11-3.967 0 1.984 1.984 0 013.967 0M393.887 216.241a1.983 1.983 0 11-3.965 0 1.983 1.983 0 013.965 0M410.745 275.244a1.983 1.983 0 11-3.966.002 1.983 1.983 0 013.966-.002M393.887 283.674a1.983 1.983 0 11-3.966 0 1.983 1.983 0 013.966 0M377.029 275.244a1.984 1.984 0 11-3.967 0 1.984 1.984 0 013.967 0M410.745 258.386a1.983 1.983 0 11-3.966.002 1.983 1.983 0 013.966-.002M377.029 258.386a1.984 1.984 0 11-3.967 0 1.984 1.984 0 013.967 0"/><path d="M393.887 249.957a1.983 1.983 0 11-3.966 0 1.983 1.983 0 013.966 0M410.745 308.961a1.983 1.983 0 11-3.966.002 1.983 1.983 0 013.966-.002M393.887 317.39a1.983 1.983 0 11-3.965 0 1.983 1.983 0 013.965 0M377.029 308.961a1.984 1.984 0 11-3.967 0 1.984 1.984 0 013.967 0M410.745 292.103a1.983 1.983 0 11-3.966 0 1.983 1.983 0 013.966 0M377.029 292.103a1.983 1.983 0 11-3.967 0 1.983 1.983 0 013.967 0M393.887 283.674a1.983 1.983 0 11-3.966 0 1.983 1.983 0 013.966 0M410.745 325.819a1.983 1.983 0 11-3.966 0 1.983 1.983 0 013.966 0M377.029 325.819a1.983 1.983 0 11-3.967 0 1.983 1.983 0 013.967 0"/><path d="M393.887 317.39a1.983 1.983 0 11-3.965 0 1.983 1.983 0 013.965 0M377.029 174.095a1.983 1.983 0 11-3.966.002 1.983 1.983 0 013.966-.002M360.171 182.524a1.983 1.983 0 11-3.967.001 1.983 1.983 0 013.967-.001M343.313 174.095a1.983 1.983 0 11-3.967 0 1.983 1.983 0 113.967 0M377.029 157.237a1.984 1.984 0 11-3.967 0 1.984 1.984 0 013.967 0M360.171 165.667a1.983 1.983 0 11-3.968-.002 1.983 1.983 0 013.968.002M343.313 157.237a1.984 1.984 0 11-3.967 0 1.984 1.984 0 013.967 0M360.171 148.808a1.983 1.983 0 11-3.967.001 1.983 1.983 0 013.967-.001M377.029 207.812a1.983 1.983 0 11-3.967 0 1.983 1.983 0 013.967 0M360.171 216.241a1.983 1.983 0 11-3.965 0 1.983 1.983 0 013.965 0M343.313 207.812a1.983 1.983 0 11-3.967 0 1.983 1.983 0 013.967 0M377.029 190.953a1.984 1.984 0 11-3.967 0 1.984 1.984 0 013.967 0M360.171 199.383a1.983 1.983 0 11-3.966 0 1.983 1.983 0 013.966 0M343.313 190.953a1.984 1.984 0 11-3.967 0 1.984 1.984 0 013.967 0"/><path d="M360.171 182.524a1.983 1.983 0 11-3.967.001 1.983 1.983 0 013.967-.001M377.029 241.529a1.983 1.983 0 11-3.965-.001 1.983 1.983 0 013.965.001M360.171 249.957a1.983 1.983 0 11-3.966 0 1.983 1.983 0 013.966 0M343.313 241.529a1.983 1.983 0 11-3.965-.001 1.983 1.983 0 013.965.001M377.029 224.67a1.984 1.984 0 11-3.967 0 1.984 1.984 0 013.967 0M360.171 233.099a1.983 1.983 0 11-3.967.001 1.983 1.983 0 013.967-.001M343.313 224.67a1.984 1.984 0 11-3.967 0 1.984 1.984 0 013.967 0M360.171 216.241a1.983 1.983 0 11-3.965 0 1.983 1.983 0 013.965 0M377.029 275.244a1.984 1.984 0 11-3.967 0 1.984 1.984 0 013.967 0M360.171 283.674a1.983 1.983 0 11-3.966 0 1.983 1.983 0 013.966 0M343.313 275.244a1.984 1.984 0 11-3.967 0 1.984 1.984 0 013.967 0M377.029 258.386a1.984 1.984 0 11-3.967 0 1.984 1.984 0 013.967 0M360.171 266.815a1.983 1.983 0 11-3.967.001 1.983 1.983 0 013.967-.001M343.313 258.386a1.984 1.984 0 11-3.967 0 1.984 1.984 0 013.967 0"/><path d="M360.171 249.957a1.983 1.983 0 11-3.966 0 1.983 1.983 0 013.966 0M377.029 308.961a1.984 1.984 0 11-3.967 0 1.984 1.984 0 013.967 0M360.171 317.39a1.983 1.983 0 11-3.965 0 1.983 1.983 0 013.965 0M377.029 292.103a1.983 1.983 0 11-3.967 0 1.983 1.983 0 013.967 0M360.171 283.674a1.983 1.983 0 11-3.966 0 1.983 1.983 0 013.966 0M377.029 325.819a1.983 1.983 0 11-3.967 0 1.983 1.983 0 013.967 0"/><path d="M360.171 317.39a1.983 1.983 0 11-3.965 0 1.983 1.983 0 013.965 0"/></g></g><path d="M444.462 325.819a1.983 1.983 0 11-3.966 0 1.983 1.983 0 013.966 0M427.604 266.815a1.984 1.984 0 11-3.967 0 1.984 1.984 0 013.967 0M427.604 300.532a1.984 1.984 0 11-3.967 0 1.984 1.984 0 013.967 0M393.887 199.383a1.983 1.983 0 11-3.966 0 1.983 1.983 0 013.966 0M393.887 233.099a1.983 1.983 0 11-3.967.001 1.983 1.983 0 013.967-.001M393.887 266.815a1.983 1.983 0 11-3.967.001 1.983 1.983 0 013.967-.001M393.887 300.532a1.983 1.983 0 11-3.967.001 1.983 1.983 0 013.967-.001M360.171 300.532a1.983 1.983 0 11-3.967.001 1.983 1.983 0 013.967-.001" fill="#fff"/><g><path d="M379.608 115.393c0 2.984-2.333 5.404-5.213 5.404s-5.214-2.42-5.214-5.404c0-2.985 2.334-5.405 5.214-5.405 2.88 0 5.213 2.42 5.213 5.405" fill="#ffb0a6"/><path d="M436.135 115.393c0 2.984-2.335 5.404-5.214 5.404-2.88 0-5.213-2.42-5.213-5.404 0-2.985 2.333-5.405 5.213-5.405 2.879 0 5.214 2.42 5.214 5.405" fill="#c4665c"/><path d="M390.931 133.693s8.541 7.959 21.993-.627c0 0 2.327 15.424 2.346 18.03.035 4.914-5.548 11.283-13.348 11.283-6.17 0-12.723-4.556-12.17-11.609.203-2.595 1.179-17.077 1.179-17.077" fill="#00b7b9"/><path d="M431.504 106.438c0-16.478-11.172-23.756-28.38-32.804-17.207 9.048-28.38 16.326-28.38 32.804 0 15.05 4.655 27.676 24.048 35.825 2.854 1.199 5.811 1.199 8.665 0 17.716-7.443 24.047-20.775 24.047-35.825" fill="#ffb0a6"/><clipPath id="c"><path d="M431.504 106.438c0-16.478-11.172-23.756-28.38-32.804-17.207 9.048-28.38 16.326-28.38 32.804 0 15.05 4.655 27.676 24.048 35.825 2.854 1.199 5.811 1.199 8.665 0 17.716-7.443 24.047-20.775 24.047-35.825"/></clipPath><g clip-path="url(#c)"><path d="M466.817 174.581c1.238-1.127 1.25-2.971.299-4.255-5.023-6.703-7.325-19.991-6.312-28.924.293-2.979 1.951-5.663 3.473-8.066 1.935-3.109 3.871-6.076 6.079-9.042 3.175-4.236 6.214-8.615 8.024-13.711 1.952-5.522 2.125-11.622 1.203-17.305-1.054-6.818-4.712-12.945-9.062-17.941-3.398-3.854-7.348-7.286-11.989-9.445-6.414-3.164-14.759-4.213-22.017-3.836a35.956 35.956 0 00-16.87 4.998c-3.435 2.106-6.326 4.782-9.219 7.743-4.876 5.458-8.444 21.04-8.6 18.25.247 4.4 1.413 10.28.248 15.925-1.541 7.462-7.882 5.023-7.869 8.691.005 1.477 4.968 4.136 4.968 4.136s.792 6.224.86 8.199c.489 14.199 5.529 23.505 16.86 16.399 1.37-.86 4.104-.849 5.614 2.53 9.299 20.801-.623 38.185.608 38.336 19.577 7.44 41.086-10.287 43.702-12.682" fill="#c4665c"/></g></g><g><path d="M375.216 99.363l23.134-.419c4.352-.078 8.184-2.994 9.561-7.275.606 3.977 3.973 6.863 7.855 6.732l14.942-.504s-.176-26.013-29.604-25.206c-25.545.701-25.888 26.672-25.888 26.672" fill="#002e84"/><path d="M389.001 121.713c0 2.58-2.453 4.671-5.479 4.671-3.025 0-5.478-2.091-5.478-4.671 0-2.581 2.453-4.672 5.478-4.672 3.026 0 5.479 2.091 5.479 4.672M427.528 121.713c0 2.58-2.453 4.671-5.479 4.671-3.026 0-5.478-2.091-5.478-4.671 0-2.581 2.452-4.672 5.478-4.672s5.479 2.091 5.479 4.672" fill="#ff39b0"/><path d="M387.72 115.713c-2.165 0-4.103-1.315-5.41-3.389 1.307-2.074 3.245-3.389 5.41-3.389 2.164 0 4.102 1.315 5.409 3.389-1.307 2.074-3.245 3.389-5.409 3.389" fill="#fff"/></g><g><path d="M382.109 112.279c0 1.871 1.464 3.388 3.269 3.388 1.806 0 3.269-1.517 3.269-3.388 0-1.872-1.463-3.389-3.269-3.389-1.805 0-3.269 1.517-3.269 3.389" fill="#002e84"/></g><g><path d="M387.941 103.642c2.807 0 5.252 1.599 6.538 3.966h-13.077c1.286-2.367 3.732-3.966 6.539-3.966" fill="#002e84"/><path d="M417.94 116.629c-2.165 0-4.102-1.316-5.409-3.389 1.307-2.074 3.244-3.389 5.409-3.389 2.164 0 4.102 1.315 5.409 3.389-1.307 2.073-3.245 3.389-5.409 3.389" fill="#fff"/></g><g><path d="M412.329 113.195c0 1.871 1.464 3.388 3.27 3.388 1.805 0 3.269-1.517 3.269-3.388 0-1.873-1.464-3.389-3.269-3.389-1.806 0-3.27 1.516-3.27 3.389" fill="#002e84"/></g><g><path d="M418.161 104.558c2.807 0 5.252 1.599 6.539 3.966h-13.078c1.286-2.367 3.732-3.966 6.539-3.966" fill="#002e84"/><path d="M405.321 128.814c0 2.682-2.097 4.855-4.683 4.855-2.587 0-4.683-2.173-4.683-4.855h9.366z" fill="#fff"/><path d="M423.878 150.088c0 12.172-9.616 22.04-21.478 22.04-11.863 0-21.478-9.868-21.478-22.04h42.956z" fill="#00b7b9"/><path d="M446.27 152.716c-.38 13.735-10.014 27.39-10.014 27.39a.685.685 0 00.4.938l.532.182a.685.685 0 00.806-.293l4.015-6.59a.688.688 0 01.784-.3l.643.195-4.877 13.318a.684.684 0 00.539.912l.002.001a.687.687 0 00.733-.402l4.677-10.652a.685.685 0 011.271.513l-4.067 11.034c-.156.424.021 1.044.405 1.281.715.439 1.23-.473 1.338-.76l4.384-11.54a.686.686 0 01.746-.435l.019.003a.687.687 0 01.551.878l-2.982 9.809c-.091.299-.594 1.22.121 1.66.714.439 1.291-.663 1.437-1.076l3.55-10.064a.686.686 0 01.66-.458l.044.001a.685.685 0 01.648.866s-1.872 6.187-2.265 8.279c-.172.912-.612 1.628.542 1.353.254-.061.92-1.619 1.016-1.863.688-1.76 8.088-12.934 10.172-26.681l-15.83-7.499z" fill="#ffb0a6"/><path d="M309.379 265.259l-2.261-66.852.991-.034 2.261 66.852-.991.034zM447.946 265.478l-44.659 19.133-20.865-47.09 45.934-21.961 19.59 49.918z" fill="#fff"/><path d="M435.703 274.897l-34.038 13.359-19.591-49.917 34.038-13.359 19.591 49.917z" fill="#00b7b9"/><path d="M443.878 271.689l-34.037 13.359-19.592-49.918 34.039-13.359 19.59 49.918z" fill="#002e84"/><path d="M470.516 236.37c-14.565 17.372-42.379 29.948-44.531 31.009-.224.11-1.691.776-1.908.656-.986-.547-.219-.767.486-1.297 1.618-1.218 6.899-4.358 6.899-4.358a.652.652 0 00.1-1.024l-.03-.029a.652.652 0 00-.757-.102l-8.945 4.788c-.366.196-1.478.6-1.698-.167-.22-.767.725-1.092.98-1.242l8.383-4.973a.653.653 0 00.175-.97l-.012-.013a.652.652 0 00-.802-.175l-10.476 5.29c-.26.131-1.207.442-1.427-.326-.118-.412.156-.96.537-1.158l9.931-5.137a.65.65 0 00.207-.986.65.65 0 00-.771-.188l-10.113 4.477a.655.655 0 01-.773-.188l-.001-.002a.652.652 0 01.208-.986l11.963-6.219-.328-.55a.655.655 0 00-.742-.293l-7.043 2.052a.653.653 0 01-.754-.312l-.257-.469a.652.652 0 01.321-.915s21.249-8.557 31.164-21.768c0 0-2.132-23.45-9.536-36.499-.135-.237-.284-1.279-.284-1.279l18.512-2.656s.5.322.676.525c7.922 9.052 10.646 45.484 10.646 45.484" fill="#c4665c"/><path d="M386.122 293.334s-14.013-47.493-12.646-101.116l-26.328-1.12c2.257 20.666 21.132 102.521 21.524 105.321.038.268.335 2.002.577 2.124 1.098.555.827-.271.873-1.235.107-2.205-.296-8.899-.296-8.899a.71.71 0 01.862-.719l.047.01a.712.712 0 01.555.62l1.162 11.012c.049.451.365 1.703 1.192 1.431s.541-1.324.522-1.646l-.651-10.618a.71.71 0 01.766-.752l.02.002a.71.71 0 01.649.617l1.649 12.701c.041.315.341 1.36 1.168 1.088.445-.146.772-.73.716-1.194l-1.45-12.115a.71.71 0 011.406-.212l2.159 11.876a.71.71 0 00.643.581h.001a.712.712 0 00.764-.792l-1.72-14.613.697-.041a.713.713 0 01.719.491l2.466 7.616a.712.712 0 00.744.489l.58-.055a.712.712 0 00.63-.852" fill="#ffb0a6"/><path d="M296.034 149.583s12.742 33.938 13.291 83.907c0 0 25.408 11.941 8.408-87.358 0 0-8.013-6.503-21.699 3.451" fill="#002e84"/></g></svg>