<svg viewBox="0 0 1366 763" xmlns="http://www.w3.org/2000/svg" fill-rule="evenodd" clip-rule="evenodd" stroke-linejoin="round" stroke-miterlimit="2"><path fill="none" d="M0 0h1366v763H0z"/><clipPath id="a"><path d="M0 0h1366v763H0z"/></clipPath><g clip-path="url(#a)"><path fill="none" d="M0 0h1366v482H0z"/><path d="M66.046 14.046c39.087 17.622 39.087 58.076 127.983 60.228 88.897 2.152 105.563-53.302 203.224-42.606 97.662 10.699 89.762 74.698 187.424 85.396 97.665 10.697 105.565-53.303 203.229-42.605 97.663 10.696 89.762 74.697 187.425 85.394 97.668 10.699 105.567-53.302 203.235-42.605 97.668 10.699 89.767 74.699 187.434 85.397V763H0V.911c17.972-2.992 39.988 1.386 66.046 13.135z" fill="#002b87"/></g></svg>