<svg width="345" height="354" xmlns="http://www.w3.org/2000/svg" xmlns:xlink="http://www.w3.org/1999/xlink"><defs><path id="a" d="M.66.466h182.488V112.39H.66z"/><path id="c" d="M0 .207h186.441v197.977H0z"/></defs><g fill="none" fill-rule="evenodd"><path fill="#002E84" d="M14.649 353.327H249.02V0H14.65z"/><path fill="#00AADC" d="M39.869 297.352H223.8V25.04H39.87z"/><path d="M141.835 322.193c0 5.992-4.477 10.85-10 10.85-5.525 0-10.002-4.858-10.002-10.85 0-5.993 4.477-10.85 10.001-10.85 5.524 0 10.001 4.857 10.001 10.85" fill="#00B7B9"/><g transform="translate(161.793 128.085)"><mask id="b" fill="#fff"><use xlink:href="#a"/></mask><path d="M182.82 10.166l-.454-.25a.632.632 0 00-.778.136l-4.7 5.341a.634.634 0 01-.76.147l-.553-.28 6.559-11.311a.632.632 0 00-.343-.916h-.001a.633.633 0 00-.73.247l-5.951 8.924a.632.632 0 01-1.072-.669l5.458-9.368c.209-.36.149-.951-.163-1.228-.578-.513-1.192.233-1.336.476l-5.827 9.777a.633.633 0 01-.747.275l-.017-.006a.632.632 0 01-.36-.884l4.277-8.43c.13-.256.734-1.013.155-1.527-.578-.514-1.278.396-1.476.747l-4.833 8.57a.632.632 0 01-.673.31l-.04-.007a.632.632 0 01-.45-.891s2.69-5.318 3.382-7.154c.301-.802.815-1.38-.277-1.315-.24.014-1.095 1.323-1.22 1.53-1.307 2.144-16.792 21.955-16.792 21.955-29.98 25.703-57.833 51.21-57.833 51.21C79.528 53.782 70.13 48.2 46.109 23.384 31.325 8.11 12.766 10.07 4.176 23.915c-10.311 16.62 3.34 32.294 24.214 49.834 31.514 26.482 70.262 38.616 70.262 38.616.376.203 8.232-.377 26.705-20.164 13.478-14.436 34.208-45.446 42.832-60.386 6.527-9.481 14.845-20.733 14.845-20.733a.632.632 0 00-.213-.916" fill="#FFB0A6" mask="url(#b)"/></g><g transform="translate(0 52.74)"><mask id="d" fill="#fff"><use xlink:href="#c"/></mask><path d="M186.428 18.798c.354-9.144-6.414-17.197-15.482-18.426a17.859 17.859 0 00-10.64 1.826c-1.812.937-3.851 1.324-5.873 1.039a42.504 42.504 0 00-6.394-.408c-9.568.104-20.98 7.064-26.272 20.747-2.169 5.605-8.09 8.804-13.985 7.635-32.735-6.491-50.23 19.099-49.526 37.183.007.179-.068.35-.102.523C30.916 70.1 6.9 89.542 1.06 117.434c-6.902 32.956 20.949 71.307 53.895 78.261 105.4 22.247 85.424-111.807 95.969-118.31.022-.01 9.604-35.158 11.57-42.375.78.278 1.587.5 2.417.67 4.796 3.95 9.597 3.911 12.585 3.297 1.872-.385 3.034-.996 3.034-.996.307-2.43.41-4.717.337-6.87a17.857 17.857 0 005.562-12.313" fill="#FF39B0" mask="url(#d)"/></g><path d="M182.244 112.938c7.077.59 7.563-1.926 7.726-2.773.199-1.04-.497-2.67-.808-3.284-.498-.984-.559-1.48.452-2.913.475-.672.217-.364.03-1.089-.415-1.609-2.834-1.67-2.834-1.67s1.045-.78 1.707-1.627c1.082-1.388-.002-2.048-.536-2.295-1.54-.714-1.072-1.449-.778-1.856 1.06-1.463 1.301-1.61 1.656-2.668.316-.944-.25-1.754-1.245-1.786-3.333-.104-4.926-1.65-5.89-2.873-1.335-1.692.06-3.25-1.048-5.164-1.45-2.507-2.881-4.402-4.176-5.827a7.484 7.484 0 00-10.62-.472c-3.783 3.492-6.238 8.07-7.773 12.059-.245.636-.965.965-1.623.786a5.547 5.547 0 00-1.316-.19c-2.767-.067-5.208 2.028-5.565 4.773a5.488 5.488 0 004.941 6.178c.336.03.666.026.99-.003.752 31.523-23.957 29.93-23.957 29.93s14.276 21.704 18.905 22.603c11.04 2.144 41.209 3.26 25.866-11.836-9.92-9.763-5.509-28.952 5.896-28.003" fill="#FFB0A6"/><path d="M188.888 101.39c-.449-.097-1.473-.236-1.908-.293.365-.24 1.226-.813 1.587-1.096 1.057-.828 1.265-2.214.315-2.72-2.367-1.26-4.393 3.975-4.425 4.049 0 0 4.326 4.536 5.903 2.368.634-.87-.159-2.026-1.472-2.309" fill="#FF39B0"/><path d="M169.922 91.039s4.855.666 6.331-1.777c1.665-2.756 3.822-1.018 3.822-1.018s-1.684.443-2.712 2.197c-1.703 2.905-5.386 1.459-7.441.598" fill="#002E84"/><path d="M179.795 85.106l-5.485.022a6.896 6.896 0 00-3.452.941l-3.184 1.862c-.288.168-.584-.204-.354-.446l1.954-2.069a6.895 6.895 0 014.992-2.158l2.317-.005a3.366 3.366 0 012.45 1.05l.762.803z" fill="#FF39B0"/><path d="M201.018 242.359c-86.29 4.693-108.778 53.213-108.778 53.213s-19.603-37.674 24.32-76.631l-4.655-84.325 22.137-.25s13.328 12.995 39.973 5.865c11.146-2.982 16.79 1.847 16.79 1.847s8.251 26.131 20.337 34.845c7.712 5.56 5.05 21.693-12.71 20.214-7.736-.644-7.028 5.825-6.279 8.321 2.725 9.088 15.129 36.56 8.865 36.9" fill="#002E84"/><path d="M115.599 217.94l82.553 1.416 24.058 79.721-140.576-.943s-2.83-45.286 33.965-80.194" fill="#FF9E32"/><path d="M139.12 310.262v-.001a.633.633 0 00-.148-.757l-8.05-7.089a.631.631 0 01.806-.973l8.557 6.66c.329.255.923.274 1.238.002.587-.504-.07-1.212-.292-1.388l-8.913-7.079a.631.631 0 01-.172-.776l.007-.017a.633.633 0 01.925-.239l7.783 5.364c.237.163.907.863 1.493.359.586-.506-.222-1.32-.543-1.564l-7.849-5.934c-.217-.165-.305-.45-.217-.708l.013-.039a.632.632 0 01.942-.327s4.911 3.376 6.64 4.307c.754.405 1.258.992 1.34-.1.017-.24-1.166-1.26-1.353-1.412-1.952-1.582-19.815-17.101-19.815-17.101-28.59-24.494-47.35-65.17-47.35-65.17 23.696-12.688 37.852-17.982 65.181-42.247 15.896-14.113 16.2-32.946 2.786-42.584-15.884-11.412-39.939-1.41-51.593 23.238-15.608 33.01-49.05 42.056-49.05 42.056-.25.346-11.565 19.728 5.58 40.677 12.508 15.284 51.27 45.342 64.925 55.882 5.046 3.896 18.986 17.118 18.986 17.118a.633.633 0 00.937-.09l.308-.416a.633.633 0 00-.031-.79l-4.667-5.37a.633.633 0 01-.043-.772l.351-.513 10.334 8.01c.316.246.775.14.954-.217" fill="#FFB0A6"/><path d="M249.222 34.003c-23.38.01-42.327 18.973-42.317 42.353a42.155 42.155 0 004.687 19.362l-12.027 31.158 36.216-10.388a42.273 42.273 0 0013.477 2.185c23.382-.01 42.328-18.973 42.317-42.353-.01-23.382-18.972-42.327-42.353-42.317" fill="#FF9E32"/><path d="M241.061 86.127c-.012.888-.034 1.774-.299 2.633-.005.016-.008.032-.012.049-.368 1.148-1.108 1.458-2.197.924a2.614 2.614 0 01-1.052-.93c-.734-1.126-.945-2.37-.807-3.686.203-1.945 1.093-3.618 2.094-5.246.225-.366.464-.728.725-1.07.084-.11.266-.218.39-.205.103.011.242.189.27.314.194.855.417 1.709.525 2.575.166 1.322.249 2.655.36 3.983.02.218.003.44.003.659m26.922-11.263c-.045-.035-.18.008-.25.052a.41.41 0 00-.144.2c-.132.366-.286.726-.376 1.102-.45 1.86-.905 3.72-1.317 5.59-.628 2.86-1.258 5.717-2.185 8.5-.256.772-.509 1.54-.993 2.208-.596.82-1.636.811-2.166-.05a3.758 3.758 0 01-.469-1.14c-.209-.955-.36-1.921-.53-2.884-.316-1.793-.426-3.608-.483-5.422-.044-1.402.014-2.808.047-4.213.016-.666.067-1.334.126-1.999.075-.83.17-1.662.266-2.491.123-1.048.254-2.094.384-3.141.106-.846.225-1.69.323-2.536.117-.997.218-1.997.325-2.995l.29-2.719c.09-.857.159-1.715.274-2.568.122-.892.196-1.779.031-2.672-.21-1.133-.65-2.15-1.49-2.961-.385-.374-.844-.647-1.378-.702-1.002-.104-1.897.203-2.709.79-1.365.99-2.56 2.164-3.658 3.433-1.89 2.182-3.765 4.375-5.635 6.573-1.361 1.597-2.706 3.21-4.057 4.816-.186.22-.357.452-.556.658-.071.074-.223.143-.304.115-.08-.028-.145-.174-.169-.278-.368-1.628-.709-3.264-1.097-4.887-.253-1.06-.61-2.093-1.156-3.046-.47-.82-1.146-1.374-2.097-1.531-.792-.131-1.586-.085-2.369.08-1.326.28-2.5.902-3.542 1.743-1.434 1.159-2.826 2.371-4.234 3.562-.156.131-.306.267-.459.402-.177.157-.197.349-.104.552.092.198.279.128.428.117a.906.906 0 00.36-.113c.552-.31 1.118-.599 1.64-.954.88-.6 1.74-1.233 2.591-1.874 1.264-.951 2.82-.46 3.597.621.484.672.843 1.41 1.12 2.182.446 1.237.596 2.542.815 3.83.245 1.447.46 2.899.708 4.345.109.633.091 1.21-.327 1.753-.338.44-.593.945-.907 1.406-1.221 1.791-2.202 3.701-2.9 5.757-.302.895-.524 1.809-.508 2.75.014.747.112 1.5.24 2.238.242 1.401.691 2.734 1.512 3.915.446.642 1.011 1.15 1.774 1.37 1.292.376 2.478.111 3.543-.687.909-.681 1.455-1.638 1.912-2.646.828-1.83 1.063-3.785 1.11-5.758.05-2.104.028-4.213-.186-6.311-.131-1.284-.296-2.565-.445-3.847-.05-.432-.155-.855.172-1.255 2.247-2.743 4.456-5.517 6.728-8.239 1.172-1.401 2.44-2.723 3.686-4.06.253-.27.593-.473.921-.656.338-.188.616-.066.798.275.152.284.14.583.098.889-.25 1.796-.516 3.59-.742 5.39a94.053 94.053 0 00-.42 4.029 93.308 93.308 0 00-.24 4.048c-.037.964-.007 1.93-.007 2.895-.027 0-.054.002-.08.003.095 1.848.166 3.698.294 5.543.09 1.314.273 2.62.384 3.933a29.1 29.1 0 00.73 4.543c.23.933.44 1.878.94 2.718.828 1.384 2.032 2.204 3.651 2.334.955.076 1.785-.297 2.533-.87 1.143-.875 1.869-2.048 2.329-3.379 1.087-3.146 1.923-6.366 2.584-9.624.571-2.817 1.015-5.66 1.508-8.493.015-.083-.023-.212-.083-.26" fill="#FFF"/></g></svg>