<svg width="572" height="275" xmlns="http://www.w3.org/2000/svg" xmlns:xlink="http://www.w3.org/1999/xlink"><defs><path id="a" d="M.405.749l.068 53.436 16.568-.021L17.28.728"/><path id="c" d="M.405.749l.068 53.436 16.568-.021L17.28.728"/><path id="e" d="M.405.749l.068 53.436 16.568-.021L17.28.728"/><path id="g" d="M.405.749l.068 53.436 16.568-.021L17.28.728"/><path id="i" d="M.405.749l.068 53.436 16.568-.021L17.28.728"/><path id="k" d="M.405.749l.068 53.436 16.568-.021L17.28.728"/><path id="m" d="M.405.749l.068 53.436 16.568-.021L17.28.728"/><path d="M.925 16.737l.045 35.08 53.435-.068-.062-49.276C48.286.991 42.742.332 37.68.332 20.383.332 8.661 8.012.925 16.737" id="o"/><path d="M.925 16.737l.045 35.08 53.435-.068-.062-49.276C48.286.991 42.742.332 37.68.332 20.383.332 8.661 8.012.925 16.737" id="q"/><path d="M.925 16.737l.045 35.08 53.435-.068-.062-49.276C48.286.991 42.742.332 37.68.332 20.383.332 8.661 8.012.925 16.737" id="s"/><path d="M.925 16.737l.045 35.08 53.435-.068-.062-49.276C48.286.991 42.742.332 37.68.332 20.383.332 8.661 8.012.925 16.737" id="u"/><path d="M.925 16.737l.045 35.08 53.435-.068-.062-49.276C48.286.991 42.742.332 37.68.332 20.383.332 8.661 8.012.925 16.737" id="w"/><path d="M.925 16.737l.045 35.08 53.435-.068-.062-49.276C48.286.991 42.742.332 37.68.332 20.383.332 8.661 8.012.925 16.737" id="y"/><path d="M.925 16.737l.045 35.08 53.435-.068-.062-49.276C48.286.991 42.742.332 37.68.332 20.383.332 8.661 8.012.925 16.737" id="A"/><path id="C" d="M.97.817l.067 53.435 53.436-.067L54.405.749"/><path id="E" d="M.97.817l.067 53.435 53.436-.067L54.405.749"/><path id="G" d="M.97.817l.067 53.435 53.436-.067L54.405.749"/><path id="I" d="M.97.817l.067 53.435 53.436-.067L54.405.749"/><path id="K" d="M.97.817l.067 53.435 53.436-.067L54.405.749"/><path id="M" d="M.97.817l.067 53.435 53.436-.067L54.405.749"/><path id="O" d="M.97.817l.067 53.435 53.436-.067L54.405.749"/><path id="Q" d="M.037.252l.004 2.83 53.435-.298-.003-2.599"/><path d="M48.37 8.105c-6.153 9.586-18.024 13.761-28.75 9.924L.498 7.017l.036 28.867 53.436-.067-.045-35.08a59.676 59.676 0 00-5.555 7.368" id="S"/><path d="M48.37 8.105c-6.153 9.586-18.024 13.761-28.75 9.924L.498 7.017l.036 28.867 53.436-.067-.045-35.08a59.676 59.676 0 00-5.555 7.368" id="U"/><path d="M48.37 8.105c-6.153 9.586-18.024 13.761-28.75 9.924L.498 7.017l.036 28.867 53.436-.067-.045-35.08a59.676 59.676 0 00-5.555 7.368" id="W"/><path d="M48.37 8.105c-6.153 9.586-18.024 13.761-28.75 9.924L.498 7.017l.036 28.867 53.436-.067-.045-35.08a59.676 59.676 0 00-5.555 7.368" id="Y"/><path d="M48.37 8.105c-6.153 9.586-18.024 13.761-28.75 9.924L.498 7.017l.036 28.867 53.436-.067-.045-35.08a59.676 59.676 0 00-5.555 7.368" id="aa"/><path d="M48.37 8.105c-6.153 9.586-18.024 13.761-28.75 9.924L.498 7.017l.036 28.867 53.436-.067-.045-35.08a59.676 59.676 0 00-5.555 7.368" id="ac"/><path d="M48.37 8.105c-6.153 9.586-18.024 13.761-28.75 9.924L.498 7.017l.036 28.867 53.436-.067-.045-35.08a59.676 59.676 0 00-5.555 7.368" id="ae"/><path id="ag" d="M.534.884L.602 54.32l53.435-.068L53.97.817"/><path id="ai" d="M.534.884L.602 54.32l53.435-.068L53.97.817"/><path id="ak" d="M.534.884L.602 54.32l53.435-.068L53.97.817"/><path id="am" d="M.534.884L.602 54.32l53.435-.068L53.97.817"/><path id="ao" d="M.534.884L.602 54.32l53.435-.068L53.97.817"/><path id="aq" d="M.534.884L.602 54.32l53.435-.068L53.97.817"/><path id="as" d="M.534.884L.602 54.32l53.435-.068L53.97.817"/><path id="au" d="M.602.32l.003 3.06 53.436-.298-.004-2.83"/><path d="M.558 5.515l9.371-.012L1.817.831S1.598 2.854.558 5.515" id="aw"/><path d="M.558 5.515l9.371-.012L1.817.831S1.598 2.854.558 5.515" id="ay"/><path d="M.558 5.515l9.371-.012L1.817.831S1.598 2.854.558 5.515" id="aA"/><path d="M.558 5.515l9.371-.012L1.817.831S1.598 2.854.558 5.515" id="aC"/><path d="M.558 5.515l9.371-.012L1.817.831S1.598 2.854.558 5.515" id="aE"/><path d="M.558 5.515l9.371-.012L1.817.831S1.598 2.854.558 5.515" id="aG"/><path d="M.558 5.515l9.371-.012L1.817.831S1.598 2.854.558 5.515" id="aI"/><path d="M1.558.515A22.088 22.088 0 01.036 3.661l.062 50.291 53.436-.068-.036-28.867L10.929.503" id="aK"/><path d="M1.558.515A22.088 22.088 0 01.036 3.661l.062 50.291 53.436-.068-.036-28.867L10.929.503" id="aM"/><path d="M1.558.515A22.088 22.088 0 01.036 3.661l.062 50.291 53.436-.068-.036-28.867L10.929.503" id="aO"/><path d="M1.558.515A22.088 22.088 0 01.036 3.661l.062 50.291 53.436-.068-.036-28.867L10.929.503" id="aQ"/><path d="M1.558.515A22.088 22.088 0 01.036 3.661l.062 50.291 53.436-.068-.036-28.867L10.929.503" id="aS"/><path d="M1.558.515A22.088 22.088 0 01.036 3.661l.062 50.291 53.436-.068-.036-28.867L10.929.503" id="aU"/><path d="M1.558.515A22.088 22.088 0 01.036 3.661l.062 50.291 53.436-.068-.036-28.867L10.929.503" id="aW"/><path id="aY" d="M.098.952l.023 17.875 34.802 35.516 18.679-.023L53.534.884"/><path id="ba" d="M.098.952l.023 17.875 34.802 35.516 18.679-.023L53.534.884"/><path id="bc" d="M.098.952l.023 17.875 34.802 35.516 18.679-.023L53.534.884"/><path id="be" d="M.098.952l.023 17.875 34.802 35.516 18.679-.023L53.534.884"/><path id="bg" d="M.098.952l.023 17.875 34.802 35.516 18.679-.023L53.534.884"/><path id="bi" d="M.098.952l.023 17.875 34.802 35.516 18.679-.023L53.534.884"/><path id="bk" d="M.098.952l.023 17.875 34.802 35.516 18.679-.023L53.534.884"/><path id="bm" d="M.923.343l3.061 3.124 15.621-.087-.003-3.06"/><path d="M26.266 8.414c-6.58 2.751-12.404 2.009-12.404 2.009C11.133 30.321 2.987 45.884.045 50.996l35.053-.044L35.036.661c-1.711 2.91-4.44 5.941-8.77 7.753" id="bo"/><path d="M26.266 8.414c-6.58 2.751-12.404 2.009-12.404 2.009C11.133 30.321 2.987 45.884.045 50.996l35.053-.044L35.036.661c-1.711 2.91-4.44 5.941-8.77 7.753" id="bq"/><path d="M26.266 8.414c-6.58 2.751-12.404 2.009-12.404 2.009C11.133 30.321 2.987 45.884.045 50.996l35.053-.044L35.036.661c-1.711 2.91-4.44 5.941-8.77 7.753" id="bs"/><path d="M26.266 8.414c-6.58 2.751-12.404 2.009-12.404 2.009C11.133 30.321 2.987 45.884.045 50.996l35.053-.044L35.036.661c-1.711 2.91-4.44 5.941-8.77 7.753" id="bu"/><path d="M26.266 8.414c-6.58 2.751-12.404 2.009-12.404 2.009C11.133 30.321 2.987 45.884.045 50.996l35.053-.044L35.036.661c-1.711 2.91-4.44 5.941-8.77 7.753" id="bw"/><path d="M26.266 8.414c-6.58 2.751-12.404 2.009-12.404 2.009C11.133 30.321 2.987 45.884.045 50.996l35.053-.044L35.036.661c-1.711 2.91-4.44 5.941-8.77 7.753" id="by"/><path d="M26.266 8.414c-6.58 2.751-12.404 2.009-12.404 2.009C11.133 30.321 2.987 45.884.045 50.996l35.053-.044L35.036.661c-1.711 2.91-4.44 5.941-8.77 7.753" id="bA"/><path d="M2.045.996A47.286 47.286 0 01.969 2.791C17.358 19.77 26.213 7.694 26.213 7.694l10.908 11.133L37.098.952" id="bC"/><path d="M2.045.996A47.286 47.286 0 01.969 2.791C17.358 19.77 26.213 7.694 26.213 7.694l10.908 11.133L37.098.952" id="bE"/><path d="M2.045.996A47.286 47.286 0 01.969 2.791C17.358 19.77 26.213 7.694 26.213 7.694l10.908 11.133L37.098.952" id="bG"/><path d="M2.045.996A47.286 47.286 0 01.969 2.791C17.358 19.77 26.213 7.694 26.213 7.694l10.908 11.133L37.098.952" id="bI"/><path d="M2.045.996A47.286 47.286 0 01.969 2.791C17.358 19.77 26.213 7.694 26.213 7.694l10.908 11.133L37.098.952" id="bK"/><path d="M2.045.996A47.286 47.286 0 01.969 2.791C17.358 19.77 26.213 7.694 26.213 7.694l10.908 11.133L37.098.952" id="bM"/><path d="M2.045.996A47.286 47.286 0 01.969 2.791C17.358 19.77 26.213 7.694 26.213 7.694l10.908 11.133L37.098.952" id="bO"/></defs><g fill="none" fill-rule="evenodd"><path d="M107.28 272.84c14.6.968 89.834-.064 104.14-.144 31.282-.175 64.575-94.892 23.848-90.55-12.21 1.304-8.82 7.089-20.075 17.57-14.666 13.66-23.462 39.562-26.124 45.924-1.734 4.143-32.977-.203-79.149 16.575-2.03.739-4.11 1.342-6.25 1.047-6.83-.941-23.036-1.764-30.969 9.796l34.58-.218z" fill="#FF39B0"/><path d="M175.866 114.119c-2.37-8.862 2.467-18.233 11.062-21.441a17.905 17.905 0 0110.805-.57c1.98.516 4.06.444 5.974-.282a42.544 42.544 0 016.16-1.814c9.379-2.015 22.078 2.266 30.28 14.473 3.36 5 9.857 6.819 15.363 4.372 30.57-13.59 53.338 7.56 56.65 25.399.034.176.144.326.216.489 26.894-4.87 54.678 8.828 66.559 34.806 14.04 30.697-2.265 62.738-32.94 76.826-98.135 45.07-110.703-78.803-122.452-82.827-.024-.006-17.168-32.253-20.688-38.874a17.98 17.98 0 01-2.215 1.19c-3.815 4.922-8.518 5.947-11.575 6.007-1.915.038-3.188-.302-3.188-.302a43.18 43.18 0 01-1.85-6.643 17.908 17.908 0 01-8.161-10.81" fill="#C4665C"/><path d="M189.116 153.673c-6.79 2.142-7.821-.21-8.167-1.002-.425-.974-.106-2.722.063-3.39.27-1.073.219-1.571-1.086-2.748-.613-.552-.293-.308-.271-1.057.05-1.666 2.402-2.261 2.402-2.261s-1.195-.531-2.03-1.214c-1.365-1.117-.451-2.002.017-2.363 1.348-1.038.727-1.653.349-1.986-1.358-1.196-1.627-1.286-2.208-2.242-.52-.853-.144-1.771.822-2.022 3.235-.84 4.45-2.704 5.124-4.112.93-1.95-.778-3.164-.12-5.281.864-2.772 1.845-4.942 2.795-6.621a7.502 7.502 0 0110.28-2.811c4.47 2.577 7.884 6.509 10.268 10.07.38.569 1.157.73 1.76.41.385-.203.8-.365 1.246-.477 2.69-.678 5.54.83 6.496 3.436a5.5 5.5 0 01-3.464 7.133 5.482 5.482 0 01-.968.217c8.378 26.703 29.732 29.687 29.732 29.687s-8.844 18.657-13.17 20.56c-10.32 4.539-31.653 11.502-27.911-5.85 2.943-13.64-1.018-29.528-11.96-26.076" fill="#FFB0A6"/><path d="M180.065 143.85c.417-.193 1.389-.556 1.801-.707-.41-.155-1.379-.524-1.795-.72-1.217-.577-1.727-1.886-.91-2.59 2.037-1.756 5.175 2.913 5.223 2.978 0 0-3.226 5.393-5.249 3.622-.811-.71-.292-2.017.93-2.583" fill="#FF39B0"/><path d="M196.079 126.564s-3.738 3.187-6.306 1.923c-2.895-1.426-3.776 1.207-3.776 1.207s1.66-.537 3.477.388c3.008 1.532 5.335-1.68 6.605-3.518" fill="#002E84"/><path d="M185.346 124.754l5.368-1.193a6.918 6.918 0 013.583.157l3.526 1.116c.318.101.525-.329.248-.515l-2.37-1.59a6.905 6.905 0 00-5.357-1.005l-2.267.507c-.907.203-1.69.77-2.165 1.57l-.566.953zm88.835-97.392c-12.676-.58-56.495-15.723-56.495-15.723s5.468 16.927 22.211 20.374a24.29 24.29 0 012.601.679c3.041.989 5.104 3.913 4.807 7.097a10.814 10.814 0 004.686 9.964c4.585 3.15 10.713 2.293 14.331-1.934.405-.474.778-.986 1.14-1.554l.005-.01a1.958 1.958 0 011.751-.89c11.125.55 33.424 4.227 55.124 23.046 42.577 36.926 75.9 26.432 75.9 26.432-.232 7.616 5.496 31.155-34.437 52.346-13.372 7.096-26.677 15.49-32.924 30.573-11.396 27.515 1.67 59.058 29.185 70.454a53.864 53.864 0 0015.87 3.906l26.97 10.059s47.637-113.192 61.722-144.495c14.537-32.305 28.477-57.273-11.66-73.694-62.137-25.418-135.32-14.551-180.787-16.63" fill="#FF39B0"/><path d="M324.37 187.257c10.31-16.063 32.449-34.787 76.104-15.73l-.444 99.316-139.046.777-48.771-49.774s-8.855 12.077-25.244-4.902c0 0 11.539-17.91 14.894-42.37 0 0 5.823.744 12.403-2.008 10.33-4.321 11.55-15.582 11.55-15.582l69.805 40.197c10.725 3.837 22.596-.338 28.749-9.924" fill="#00AADC"/><g transform="translate(383 214.152)"><mask id="b" fill="#fff"><use xlink:href="#a"/></mask><path d="M57.035 40.755a3.143 3.143 0 11-6.286.008 3.143 3.143 0 016.286-.008" fill="#FFF" mask="url(#b)"/></g><g transform="translate(383 214.152)"><mask id="d" fill="#fff"><use xlink:href="#c"/></mask><path d="M30.334 54.147a3.143 3.143 0 11-6.286.009 3.143 3.143 0 016.286-.009" fill="#FFF" mask="url(#d)"/></g><g transform="translate(383 214.152)"><mask id="f" fill="#fff"><use xlink:href="#e"/></mask><path d="M3.6 40.822a3.143 3.143 0 11-6.286.008 3.143 3.143 0 016.285-.008" fill="#FFF" mask="url(#f)"/></g><g transform="translate(383 214.152)"><mask id="h" fill="#fff"><use xlink:href="#g"/></mask><path d="M57.001 14.037a3.143 3.143 0 11-6.286.008 3.143 3.143 0 016.286-.008" fill="#FFF" mask="url(#h)"/></g><g transform="translate(383 214.152)"><mask id="j" fill="#fff"><use xlink:href="#i"/></mask><path d="M30.3 27.43a3.143 3.143 0 11-6.286.008 3.143 3.143 0 016.286-.009" fill="#FFF" mask="url(#j)"/></g><g transform="translate(383 214.152)"><mask id="l" fill="#fff"><use xlink:href="#k"/></mask><path d="M3.566 14.104a3.143 3.143 0 11-6.287.008 3.143 3.143 0 016.287-.008" fill="#FFF" mask="url(#l)"/></g><g transform="translate(383 214.152)"><mask id="n" fill="#fff"><use xlink:href="#m"/></mask><path d="M30.266.712a3.143 3.143 0 11-6.285.008 3.143 3.143 0 016.285-.008" fill="#FFF" mask="url(#n)"/></g><g transform="translate(329 163.152)"><mask id="p" fill="#fff"><use xlink:href="#o"/></mask><path d="M57.532 38.386a3.143 3.143 0 11-6.286.008 3.143 3.143 0 016.286-.008" fill="#FFF" mask="url(#p)"/></g><g transform="translate(329 163.152)"><mask id="r" fill="#fff"><use xlink:href="#q"/></mask><path d="M30.83 51.779a3.144 3.144 0 11-6.287.007 3.144 3.144 0 016.288-.007" fill="#FFF" mask="url(#r)"/></g><g transform="translate(329 163.152)"><mask id="t" fill="#fff"><use xlink:href="#s"/></mask><path d="M4.096 38.454a3.143 3.143 0 11-6.286.008 3.143 3.143 0 016.286-.008" fill="#FFF" mask="url(#t)"/></g><g transform="translate(329 163.152)"><mask id="v" fill="#fff"><use xlink:href="#u"/></mask><path d="M57.498 11.669a3.143 3.143 0 11-6.286.008 3.143 3.143 0 016.286-.008" fill="#FFF" mask="url(#v)"/></g><g transform="translate(329 163.152)"><mask id="x" fill="#fff"><use xlink:href="#w"/></mask><path d="M30.797 25.062a3.143 3.143 0 11-6.286.008 3.143 3.143 0 016.286-.008" fill="#FFF" mask="url(#x)"/></g><g transform="translate(329 163.152)"><mask id="z" fill="#fff"><use xlink:href="#y"/></mask><path d="M4.063 11.736a3.143 3.143 0 11-6.286.008 3.143 3.143 0 016.286-.008" fill="#FFF" mask="url(#z)"/></g><g transform="translate(329 163.152)"><mask id="B" fill="#fff"><use xlink:href="#A"/></mask><path d="M30.763-1.656a3.143 3.143 0 11-6.285.008 3.143 3.143 0 016.285-.008" fill="#FFF" mask="url(#B)"/></g><g transform="translate(329 214.152)"><mask id="D" fill="#fff"><use xlink:href="#C"/></mask><path d="M57.6 40.822a3.143 3.143 0 11-6.286.008 3.143 3.143 0 016.285-.008" fill="#FFF" mask="url(#D)"/></g><g transform="translate(329 214.152)"><mask id="F" fill="#fff"><use xlink:href="#E"/></mask><path d="M30.899 54.215a3.143 3.143 0 11-6.287.007 3.143 3.143 0 016.287-.008" fill="#FFF" mask="url(#F)"/></g><g transform="translate(329 214.152)"><mask id="H" fill="#fff"><use xlink:href="#G"/></mask><path d="M4.164 40.89a3.143 3.143 0 11-6.286.008 3.143 3.143 0 016.286-.008" fill="#FFF" mask="url(#H)"/></g><g transform="translate(329 214.152)"><mask id="J" fill="#fff"><use xlink:href="#I"/></mask><path d="M57.566 14.104a3.143 3.143 0 11-6.287.008 3.143 3.143 0 016.287-.008" fill="#FFF" mask="url(#J)"/></g><g transform="translate(329 214.152)"><mask id="L" fill="#fff"><use xlink:href="#K"/></mask><path d="M30.864 27.497a3.143 3.143 0 11-6.285.008 3.143 3.143 0 016.285-.008" fill="#FFF" mask="url(#L)"/></g><g transform="translate(329 214.152)"><mask id="N" fill="#fff"><use xlink:href="#M"/></mask><path d="M4.13 14.172a3.143 3.143 0 11-6.286.008 3.143 3.143 0 016.286-.008" fill="#FFF" mask="url(#N)"/></g><g transform="translate(329 214.152)"><mask id="P" fill="#fff"><use xlink:href="#O"/></mask><path d="M30.83.779a3.144 3.144 0 11-6.287.007 3.144 3.144 0 016.288-.007" fill="#FFF" mask="url(#P)"/></g><g transform="translate(330 268.152)"><mask id="R" fill="#fff"><use xlink:href="#Q"/></mask><path d="M29.899.214a3.143 3.143 0 11-6.287.008A3.143 3.143 0 0129.9.215" fill="#FFF" mask="url(#R)"/></g><g transform="translate(276 179.152)"><mask id="T" fill="#fff"><use xlink:href="#S"/></mask><path d="M57.096 22.454a3.143 3.143 0 11-6.286.008 3.143 3.143 0 016.286-.008" fill="#FFF" mask="url(#T)"/></g><g transform="translate(276 179.152)"><mask id="V" fill="#fff"><use xlink:href="#U"/></mask><path d="M30.395 35.847a3.143 3.143 0 11-6.285.008 3.143 3.143 0 016.285-.008" fill="#FFF" mask="url(#V)"/></g><g transform="translate(276 179.152)"><mask id="X" fill="#fff"><use xlink:href="#W"/></mask><path d="M3.66 22.522a3.143 3.143 0 11-6.285.008 3.143 3.143 0 016.286-.008" fill="#FFF" mask="url(#X)"/></g><g transform="translate(276 179.152)"><mask id="Z" fill="#fff"><use xlink:href="#Y"/></mask><path d="M57.063-4.263a3.143 3.143 0 11-6.286.007 3.143 3.143 0 016.286-.007" fill="#FFF" mask="url(#Z)"/></g><g transform="translate(276 179.152)"><mask id="ab" fill="#fff"><use xlink:href="#aa"/></mask><path d="M30.361 9.129a3.143 3.143 0 11-6.285.008 3.143 3.143 0 016.285-.008" fill="#FFF" mask="url(#ab)"/></g><g transform="translate(276 179.152)"><mask id="ad" fill="#fff"><use xlink:href="#ac"/></mask><path d="M3.627-4.196a3.143 3.143 0 11-6.286.008 3.143 3.143 0 016.286-.008" fill="#FFF" mask="url(#ad)"/></g><g transform="translate(276 179.152)"><mask id="af" fill="#fff"><use xlink:href="#ae"/></mask><path d="M30.328-17.589a3.143 3.143 0 11-6.286.009 3.143 3.143 0 016.286-.009" fill="#FFF" mask="url(#af)"/></g><g transform="translate(276 214.152)"><mask id="ah" fill="#fff"><use xlink:href="#ag"/></mask><path d="M57.164 40.89a3.143 3.143 0 11-6.286.008 3.143 3.143 0 016.286-.008" fill="#FFF" mask="url(#ah)"/></g><g transform="translate(276 214.152)"><mask id="aj" fill="#fff"><use xlink:href="#ai"/></mask><path d="M30.463 54.282a3.143 3.143 0 11-6.286.008 3.143 3.143 0 016.286-.008" fill="#FFF" mask="url(#aj)"/></g><g transform="translate(276 214.152)"><mask id="al" fill="#fff"><use xlink:href="#ak"/></mask><path d="M3.728 40.957a3.143 3.143 0 11-6.285.009 3.143 3.143 0 016.285-.009" fill="#FFF" mask="url(#al)"/></g><g transform="translate(276 214.152)"><mask id="an" fill="#fff"><use xlink:href="#am"/></mask><path d="M57.13 14.172a3.143 3.143 0 11-6.286.008 3.143 3.143 0 016.286-.008" fill="#FFF" mask="url(#an)"/></g><g transform="translate(276 214.152)"><mask id="ap" fill="#fff"><use xlink:href="#ao"/></mask><path d="M30.43 27.565a3.143 3.143 0 11-6.287.008 3.143 3.143 0 016.286-.008" fill="#FFF" mask="url(#ap)"/></g><g transform="translate(276 214.152)"><mask id="ar" fill="#fff"><use xlink:href="#aq"/></mask><path d="M3.694 14.24a3.143 3.143 0 11-6.285.008 3.143 3.143 0 016.285-.009" fill="#FFF" mask="url(#ar)"/></g><g transform="translate(276 214.152)"><mask id="at" fill="#fff"><use xlink:href="#as"/></mask><path d="M30.395.847a3.143 3.143 0 11-6.285.008 3.143 3.143 0 016.285-.008" fill="#FFF" mask="url(#at)"/></g><g transform="translate(276 268.152)"><mask id="av" fill="#fff"><use xlink:href="#au"/></mask><path d="M30.463.282a3.143 3.143 0 11-6.286.008 3.143 3.143 0 016.286-.008" fill="#FFF" mask="url(#av)"/></g><g><g transform="translate(224 156.152)"><mask id="ax" fill="#fff"><use xlink:href="#aw"/></mask><path d="M55.593-7.914a3.143 3.143 0 11-6.286.008 3.143 3.143 0 016.286-.008" fill="#FFF" mask="url(#ax)"/></g><g transform="translate(224 156.152)"><mask id="az" fill="#fff"><use xlink:href="#ay"/></mask><path d="M28.892 5.479a3.143 3.143 0 11-6.285.008 3.143 3.143 0 016.285-.008" fill="#FFF" mask="url(#az)"/></g><g transform="translate(224 156.152)"><mask id="aB" fill="#fff"><use xlink:href="#aA"/></mask><path d="M2.158-7.846a3.143 3.143 0 11-6.286.008 3.143 3.143 0 016.286-.008" fill="#FFF" mask="url(#aB)"/></g><g transform="translate(224 156.152)"><mask id="aD" fill="#fff"><use xlink:href="#aC"/></mask><path d="M55.56-34.632a3.143 3.143 0 11-6.286.009 3.143 3.143 0 016.285-.009" fill="#FFF" mask="url(#aD)"/></g><g transform="translate(224 156.152)"><mask id="aF" fill="#fff"><use xlink:href="#aE"/></mask><path d="M28.858-21.24a3.143 3.143 0 11-6.285.01 3.143 3.143 0 016.285-.01" fill="#FFF" mask="url(#aF)"/></g><g transform="translate(224 156.152)"><mask id="aH" fill="#fff"><use xlink:href="#aG"/></mask><path d="M2.124-34.564a3.143 3.143 0 11-6.286.008 3.143 3.143 0 016.286-.008" fill="#FFF" mask="url(#aH)"/></g><g transform="translate(224 156.152)"><mask id="aJ" fill="#fff"><use xlink:href="#aI"/></mask><path d="M28.825-47.957a3.143 3.143 0 11-6.286.009 3.143 3.143 0 016.286-.009" fill="#FFF" mask="url(#aJ)"/></g></g><g><g transform="translate(223 161.152)"><mask id="aL" fill="#fff"><use xlink:href="#aK"/></mask><path d="M56.66 40.522a3.143 3.143 0 11-6.285.008 3.143 3.143 0 016.286-.008" fill="#FFF" mask="url(#aL)"/></g><g transform="translate(223 161.152)"><mask id="aN" fill="#fff"><use xlink:href="#aM"/></mask><path d="M29.96 53.914a3.143 3.143 0 11-6.286.008 3.143 3.143 0 016.286-.008" fill="#FFF" mask="url(#aN)"/></g><g transform="translate(223 161.152)"><mask id="aP" fill="#fff"><use xlink:href="#aO"/></mask><path d="M3.225 40.589a3.143 3.143 0 11-6.285.008 3.143 3.143 0 016.285-.008" fill="#FFF" mask="url(#aP)"/></g><g transform="translate(223 161.152)"><mask id="aR" fill="#fff"><use xlink:href="#aQ"/></mask><path d="M56.627 13.804a3.143 3.143 0 11-6.286.008 3.143 3.143 0 016.286-.008" fill="#FFF" mask="url(#aR)"/></g><g transform="translate(223 161.152)"><mask id="aT" fill="#fff"><use xlink:href="#aS"/></mask><path d="M29.926 27.196a3.143 3.143 0 11-6.286.009 3.143 3.143 0 016.286-.009" fill="#FFF" mask="url(#aT)"/></g><g transform="translate(223 161.152)"><mask id="aV" fill="#fff"><use xlink:href="#aU"/></mask><path d="M3.192 13.871a3.143 3.143 0 11-6.286.009 3.143 3.143 0 016.286-.009" fill="#FFF" mask="url(#aV)"/></g><g transform="translate(223 161.152)"><mask id="aX" fill="#fff"><use xlink:href="#aW"/></mask><path d="M29.892.479a3.143 3.143 0 11-6.285.008 3.143 3.143 0 016.285-.008" fill="#FFF" mask="url(#aX)"/></g></g><g><g transform="translate(223 214.152)"><mask id="aZ" fill="#fff"><use xlink:href="#aY"/></mask><path d="M56.728 40.957a3.143 3.143 0 11-6.285.009 3.143 3.143 0 016.285-.009" fill="#FFF" mask="url(#aZ)"/></g><g transform="translate(223 214.152)"><mask id="bb" fill="#fff"><use xlink:href="#ba"/></mask><path d="M30.027 54.35a3.143 3.143 0 11-6.285.008 3.143 3.143 0 016.285-.008" fill="#FFF" mask="url(#bb)"/></g><g transform="translate(223 214.152)"><mask id="bd" fill="#fff"><use xlink:href="#bc"/></mask><path d="M3.293 41.025a3.143 3.143 0 11-6.286.008 3.143 3.143 0 016.286-.008" fill="#FFF" mask="url(#bd)"/></g><g transform="translate(223 214.152)"><mask id="bf" fill="#fff"><use xlink:href="#be"/></mask><path d="M56.694 14.24a3.143 3.143 0 11-6.285.008 3.143 3.143 0 016.285-.009" fill="#FFF" mask="url(#bf)"/></g><g transform="translate(223 214.152)"><mask id="bh" fill="#fff"><use xlink:href="#bg"/></mask><path d="M29.994 27.632a3.143 3.143 0 11-6.286.008 3.143 3.143 0 016.286-.008" fill="#FFF" mask="url(#bh)"/></g><g transform="translate(223 214.152)"><mask id="bj" fill="#fff"><use xlink:href="#bi"/></mask><path d="M3.259 14.307a3.143 3.143 0 11-6.286.008 3.143 3.143 0 016.286-.008" fill="#FFF" mask="url(#bj)"/></g><g transform="translate(223 214.152)"><mask id="bl" fill="#fff"><use xlink:href="#bk"/></mask><path d="M29.96.914a3.143 3.143 0 11-6.286.008A3.143 3.143 0 0129.96.914" fill="#FFF" mask="url(#bl)"/></g></g><g transform="translate(257 268.152)"><mask id="bn" fill="#fff"><use xlink:href="#bm"/></mask><path d="M-3.973.35a3.143 3.143 0 11-6.285.008A3.143 3.143 0 01-3.973.35" fill="#FFF" mask="url(#bn)"/></g><g><g transform="translate(188 164.152)"><mask id="bp" fill="#fff"><use xlink:href="#bo"/></mask><path d="M38.225 37.589a3.143 3.143 0 11-6.285.008 3.143 3.143 0 016.285-.008" fill="#FFF" mask="url(#bp)"/></g><g transform="translate(188 164.152)"><mask id="br" fill="#fff"><use xlink:href="#bq"/></mask><path d="M11.525 50.982a3.143 3.143 0 11-6.288.008 3.143 3.143 0 016.288-.008" fill="#FFF" mask="url(#br)"/></g><g transform="translate(188 164.152)"><mask id="bt" fill="#fff"><use xlink:href="#bs"/></mask><path d="M-15.21 37.657a3.143 3.143 0 11-6.286.008 3.143 3.143 0 016.286-.008" fill="#FFF" mask="url(#bt)"/></g><g transform="translate(188 164.152)"><mask id="bv" fill="#fff"><use xlink:href="#bu"/></mask><path d="M38.192 10.871a3.143 3.143 0 11-6.286.009 3.143 3.143 0 016.286-.009" fill="#FFF" mask="url(#bv)"/></g><g transform="translate(188 164.152)"><mask id="bx" fill="#fff"><use xlink:href="#bw"/></mask><path d="M11.49 24.264a3.143 3.143 0 11-6.285.008 3.143 3.143 0 016.286-.008" fill="#FFF" mask="url(#bx)"/></g><g transform="translate(188 164.152)"><mask id="bz" fill="#fff"><use xlink:href="#by"/></mask><path d="M-15.244 10.94a3.143 3.143 0 11-6.286.008 3.143 3.143 0 016.286-.009" fill="#FFF" mask="url(#bz)"/></g><g transform="translate(188 164.152)"><mask id="bB" fill="#fff"><use xlink:href="#bA"/></mask><path d="M11.457-2.454a3.143 3.143 0 11-6.286.009 3.143 3.143 0 016.286-.009" fill="#FFF" mask="url(#bB)"/></g></g><g><g transform="translate(186 214.152)"><mask id="bD" fill="#fff"><use xlink:href="#bC"/></mask><path d="M40.293 41.025a3.143 3.143 0 11-6.286.008 3.143 3.143 0 016.286-.008" fill="#FFF" mask="url(#bD)"/></g><g transform="translate(186 214.152)"><mask id="bF" fill="#fff"><use xlink:href="#bE"/></mask><path d="M13.592 54.417a3.143 3.143 0 11-6.286.009 3.143 3.143 0 016.286-.009" fill="#FFF" mask="url(#bF)"/></g><g transform="translate(186 214.152)"><mask id="bH" fill="#fff"><use xlink:href="#bG"/></mask><path d="M-13.143 41.092a3.143 3.143 0 11-6.286.009 3.143 3.143 0 016.286-.009" fill="#FFF" mask="url(#bH)"/></g><g transform="translate(186 214.152)"><mask id="bJ" fill="#fff"><use xlink:href="#bI"/></mask><path d="M40.259 14.307a3.143 3.143 0 11-6.286.008 3.143 3.143 0 016.286-.008" fill="#FFF" mask="url(#bJ)"/></g><g transform="translate(186 214.152)"><mask id="bL" fill="#fff"><use xlink:href="#bK"/></mask><path d="M13.558 27.7a3.143 3.143 0 11-6.285.008 3.143 3.143 0 016.285-.009" fill="#FFF" mask="url(#bL)"/></g><g transform="translate(186 214.152)"><mask id="bN" fill="#fff"><use xlink:href="#bM"/></mask><path d="M-13.177 14.375a3.143 3.143 0 11-6.285.008 3.143 3.143 0 016.285-.008" fill="#FFF" mask="url(#bN)"/></g><g transform="translate(186 214.152)"><mask id="bP" fill="#fff"><use xlink:href="#bO"/></mask><path d="M13.525.982A3.143 3.143 0 117.237.99a3.143 3.143 0 016.288-.008" fill="#FFF" mask="url(#bP)"/></g></g><path d="M199.592 268.57a3.143 3.143 0 11-6.286.008 3.143 3.143 0 016.286-.009" fill="#FFF"/><g fill="#FFB0A6"><path d="M516.34 59.171c-4.381-11.909-7.417-58.17-7.417-58.17s-13.481 11.604-10.166 28.373c.19.965.316 1.85.384 2.661.267 3.186-1.628 6.222-4.678 7.183a10.813 10.813 0 00-7.367 8.182c-1.125 5.45 2.04 10.765 7.34 12.46.594.19 1.21.335 1.875.448l.01.002c.69.117 1.26.61 1.499 1.268 3.81 10.468 9.067 32.448.137 59.747-17.524 53.566 5.07 80.211 5.07 80.211-7.108 2.74-26.583 17.148-61.603-11.442-11.727-9.573-29.325-20.96-50.65-18.902-29.644 2.862-58.951 26.37-61.366 56.983-2.174 27.557 7.22 42.634 7.22 42.634s136.774-.067 171.09.777c35.415.871 63.835 4.036 63.404-39.329-.668-67.13-39.066-130.372-54.782-173.086"/></g><path d="M170.048 273.626l-149.88.19-.014-9.806 140.076-.177c5.416-.007 9.811 4.378 9.818 9.793" fill="#FFF"/><g fill="#FFF"><path d="M13.214 158.425l116.06-5.212-11.054 120.48L0 273.17z"/></g><path d="M168.968 273.66c14.6.967 89.834-.065 104.14-.146 31.282-.174 6.742-119.41-33.985-115.066-12.21 1.302-18.973 12.373-15.078 27.251 8.406 32.114 26.471 55.661 23.81 62.023-1.735 4.143-22.293-11.4-76.247 15.312-1.937.96-4.11 1.342-6.25 1.047-6.83-.94-23.036-1.764-30.969 9.796l34.58-.218z" fill="#FFB0A6"/><path d="M56.464 230.15c-.017 1.202-.046 2.4-.404 3.564-.007.022-.01.045-.018.066-.498 1.554-1.5 1.975-2.974 1.25a3.53 3.53 0 01-1.424-1.258c-.993-1.523-1.278-3.208-1.093-4.99.274-2.632 1.48-4.898 2.836-7.101.306-.496.628-.985.981-1.448.115-.15.36-.296.528-.278.14.015.328.256.366.425.262 1.157.564 2.312.711 3.485.224 1.79.337 3.595.488 5.393.024.295.003.595.003.892m36.447-15.248c-.06-.047-.242.01-.339.07a.55.55 0 00-.194.272c-.18.494-.387.982-.51 1.49-.609 2.52-1.225 5.038-1.782 7.569-.85 3.87-1.705 7.74-2.958 11.507-.348 1.045-.69 2.086-1.345 2.989-.807 1.11-2.216 1.099-2.933-.066a5.097 5.097 0 01-.634-1.545c-.283-1.292-.487-2.601-.717-3.904-.43-2.427-.577-4.884-.655-7.34-.059-1.898.02-3.802.064-5.703.021-.903.09-1.806.171-2.706.101-1.126.23-2.251.36-3.374.165-1.418.343-2.835.521-4.252.143-1.144.303-2.287.437-3.433.157-1.35.295-2.703.44-4.055l.39-3.681c.123-1.16.216-2.322.374-3.476.164-1.208.263-2.41.04-3.618-.283-1.533-.88-2.91-2.017-4.01-.522-.505-1.142-.874-1.867-.95-1.356-.14-2.567.276-3.665 1.072-1.849 1.339-3.466 2.928-4.954 4.647a1435.996 1435.996 0 00-7.629 8.898c-1.842 2.163-3.662 4.345-5.49 6.519-.252.298-.485.613-.754.892-.096.1-.3.193-.41.156-.11-.037-.198-.235-.23-.377-.498-2.205-.96-4.418-1.485-6.616-.344-1.436-.826-2.832-1.566-4.123-.636-1.111-1.55-1.86-2.839-2.073-1.072-.178-2.146-.115-3.206.108-1.796.38-3.385 1.22-4.795 2.36-1.942 1.568-3.826 3.21-5.733 4.822-.21.178-.414.362-.62.544-.24.212-.268.472-.142.748.124.267.378.173.58.158.166-.013.34-.071.487-.154.746-.42 1.514-.81 2.22-1.291a92.676 92.676 0 003.508-2.537c1.712-1.288 3.817-.623 4.87.84.654.912 1.141 1.91 1.517 2.955.603 1.675.806 3.442 1.102 5.186.332 1.958.624 3.923.96 5.88.146.858.122 1.639-.443 2.374-.458.598-.804 1.28-1.229 1.904-1.654 2.425-2.98 5.01-3.925 7.794-.41 1.21-.71 2.448-.688 3.723.018 1.012.151 2.03.324 3.029.328 1.898.936 3.702 2.047 5.3.604.87 1.37 1.557 2.402 1.857 1.75.508 3.354.149 4.797-.932 1.23-.922 1.97-2.217 2.588-3.582 1.12-2.476 1.44-5.124 1.503-7.794.068-2.85.038-5.704-.252-8.545-.178-1.738-.4-3.471-.603-5.207-.068-.586-.209-1.158.234-1.7 3.04-3.714 6.032-7.47 9.11-11.153 1.584-1.897 3.3-3.687 4.988-5.496.342-.367.802-.641 1.247-.89.456-.254.834-.09 1.08.373.206.385.19.789.132 1.203-.339 2.432-.697 4.862-1.003 7.297a126.288 126.288 0 00-.568 5.455 125.34 125.34 0 00-.326 5.48c-.05 1.305-.01 2.612-.01 3.919l-.109.005c.13 2.502.226 5.006.398 7.504.122 1.778.37 3.547.52 5.324a39.44 39.44 0 00.99 6.15c.312 1.263.594 2.542 1.273 3.679 1.12 1.874 2.75 2.985 4.941 3.16 1.293.103 2.417-.402 3.43-1.177 1.547-1.184 2.53-2.772 3.153-4.574 1.471-4.26 2.603-8.618 3.497-13.03.774-3.813 1.375-7.662 2.043-11.496.02-.113-.03-.29-.113-.352" fill="#002B87"/></g></svg>